<svg width="524" height="380" viewBox="0 0 524 380" fill="none" xmlns="http://www.w3.org/2000/svg">
<path d="M153.732 311.539L121.512 311.389L110.608 259.679C110.398 258.642 109.834 257.711 109.014 257.042C108.194 256.374 107.169 256.01 106.111 256.012H38.781C38.0936 256.011 37.4146 256.164 36.7941 256.459C36.1736 256.755 35.6274 257.186 35.1957 257.721C34.7641 258.256 34.458 258.881 34.3001 259.55C34.1422 260.219 34.1364 260.915 34.2833 261.587L45.3777 312.452C45.5582 313.279 46.0163 314.02 46.6758 314.55C47.3354 315.081 48.1567 315.37 49.0031 315.369H158.434C158.434 312.752 156.349 311.539 153.732 311.539Z" fill="#15636D"/>
<path d="M119.399 315.369C119.331 315.369 116.292 302.107 112.584 285.725C108.877 269.342 106.001 256.026 106.07 256.012C106.138 255.999 109.177 269.274 112.884 285.657C116.592 302.039 119.467 315.355 119.399 315.369Z" fill="#263238"/>
<path d="M79.6007 284.934C80.0115 285.662 80.2033 286.492 80.1532 287.326C80.1031 288.16 79.8131 288.961 79.3181 289.634C78.8232 290.307 78.1443 290.822 77.3633 291.119C76.5822 291.415 75.7322 291.479 74.9156 291.303C74.099 291.128 73.3505 290.72 72.7602 290.129C72.1699 289.538 71.763 288.789 71.5884 287.972C71.4138 287.155 71.479 286.305 71.7761 285.524C72.0731 284.744 72.5895 284.065 73.263 283.571C74.2848 282.914 75.5255 282.689 76.7133 282.944C77.9011 283.199 78.9393 283.915 79.6007 284.934Z" fill="white"/>
<path d="M342.828 23.8133L369.465 54.0539L374.836 76.252L387.642 91.6199L393.619 87.3083L394.293 77.7631L383.126 42.3231C383.126 42.3231 352.39 15.9927 346.943 14.3193L342.828 23.8133Z" fill="#B7796B"/>
<path d="M338.857 7.37839C338.857 7.37839 348.249 11.6473 349.956 15.2502C351.013 17.5142 351.788 19.9 352.261 22.3536L343.237 24.4624L330.379 19.0921C330.379 19.0921 319.118 9.49575 319.383 8.89811C319.647 8.30047 320.236 6.40509 321.756 7.36131C323.276 8.31754 330.2 12.7401 330.2 12.7401C330.2 12.7401 320.988 3.91208 321.952 3.34859C322.917 2.7851 324.633 2.58019 326.366 4.31335C328.179 5.91776 330.102 7.39273 332.121 8.72736C332.121 8.72736 325.598 0.659209 326.554 0.275011C327.51 -0.109186 333.965 5.26957 335.826 6.99419C337.687 8.71881 331.557 0.625057 333.086 0.257935C334.614 -0.109187 335.647 2.39237 336.962 4.11699C337.73 5.11901 338.367 6.21501 338.857 7.37839Z" fill="#B7796B"/>
<path d="M341.855 21.5595C341.484 21.4814 341.121 21.37 340.77 21.2265L337.868 20.1593L335.87 19.3994C335.091 19.1192 334.334 18.7796 333.607 18.3834C332.776 17.9341 332.071 17.2822 331.558 16.4881C331.269 16.0564 331.078 15.5668 330.999 15.0535C330.919 14.5403 330.953 14.0158 331.097 13.5169L331.165 13.3206L331.362 13.3718L331.498 13.4145C333.522 13.9694 335.025 15.3355 336.706 15.5574C337.499 15.6366 338.299 15.5102 339.029 15.1903C339.714 14.9191 340.437 14.7522 341.172 14.6951C342.233 14.6187 343.297 14.7912 344.279 15.1989C344.548 15.3043 344.805 15.4358 345.048 15.5916C345.21 15.694 345.295 15.7538 345.287 15.7709C345.278 15.788 344.911 15.5916 344.22 15.3611C343.25 15.0259 342.218 14.9064 341.197 15.011C340.495 15.0835 339.808 15.259 339.157 15.5318C338.375 15.8929 337.512 16.0402 336.655 15.9587C334.803 15.7197 333.24 14.3365 331.387 13.8414H331.259L331.524 13.6962C331.405 14.1276 331.38 14.5795 331.451 15.0214C331.521 15.4633 331.686 15.8848 331.934 16.2575C332.4 16.9941 333.047 17.5994 333.812 18.0163C334.517 18.4147 335.25 18.76 336.006 19.0494L337.987 19.8604L340.83 21.0557C341.188 21.1886 341.531 21.3573 341.855 21.5595Z" fill="#AA6550"/>
<path d="M363.976 38.6521C363.652 38.6821 363.326 38.6478 363.015 38.5511C362.704 38.4544 362.416 38.2972 362.166 38.0886C361.895 37.8977 361.653 37.6675 361.449 37.4056C361.272 37.1141 361.05 36.852 360.792 36.6286C360.477 36.4653 360.115 36.4141 359.767 36.4835C359.297 36.5736 358.81 36.5139 358.376 36.3127C358.15 36.1632 357.989 35.9348 357.923 35.6724C357.871 35.4585 357.831 35.2419 357.804 35.0235C357.799 34.8595 357.741 34.7014 357.64 34.5723C357.538 34.4433 357.398 34.3501 357.24 34.3064C356.897 34.2242 356.549 34.1615 356.199 34.1185C355.863 34.0486 355.547 33.9025 355.276 33.6917C354.899 33.3816 354.635 32.9553 354.525 32.4793C354.465 32.1463 354.525 31.9585 354.525 31.9585C354.525 31.9585 354.576 32.1378 354.687 32.4281C354.841 32.8335 355.111 33.1842 355.464 33.4355C355.7 33.6048 355.972 33.716 356.258 33.76C356.629 33.7845 356.997 33.8359 357.36 33.9136C357.589 33.9779 357.794 34.1086 357.949 34.2893C358.094 34.4818 358.188 34.708 358.222 34.9467C358.299 35.3736 358.324 35.8005 358.606 35.9456C359.195 36.2957 360.211 35.7407 361.022 36.2957C361.307 36.539 361.549 36.8275 361.739 37.1494C361.91 37.3956 362.114 37.6169 362.346 37.8068C362.842 38.1709 363.392 38.456 363.976 38.6521Z" fill="#AA6550"/>
<path d="M365.187 37.3799C364.534 37.4304 363.886 37.2288 363.377 36.8164C363.108 36.6231 362.866 36.3932 362.66 36.1333C362.485 35.8403 362.263 35.5778 362.003 35.3564C361.688 35.1934 361.327 35.1393 360.978 35.2027C360.509 35.3003 360.021 35.2434 359.587 35.0405C359.359 34.8896 359.197 34.6576 359.134 34.3917C359.082 34.1808 359.042 33.9669 359.015 33.7513C359.009 33.5873 358.952 33.4291 358.851 33.3001C358.749 33.171 358.609 33.0778 358.451 33.0342C358.108 32.9513 357.76 32.8886 357.409 32.8463C357.074 32.7788 356.76 32.6292 356.496 32.4109C356.113 32.1079 355.845 31.6832 355.736 31.2071C355.676 30.8741 355.736 30.6863 355.736 30.6863C355.736 30.6863 355.787 30.8656 355.898 31.1559C356.052 31.5613 356.322 31.912 356.675 32.1633C356.912 32.3291 357.184 32.44 357.469 32.4877C357.84 32.5123 358.208 32.5637 358.571 32.6414C358.8 32.7056 359.005 32.8364 359.16 33.0171C359.303 33.2073 359.397 33.4303 359.433 33.6659C359.51 34.1014 359.535 34.5197 359.826 34.6734C360.406 35.0234 361.422 34.4685 362.233 35.0234C362.517 35.2668 362.76 35.5553 362.95 35.8772C363.126 36.1197 363.329 36.3403 363.557 36.5346C364.054 36.8973 364.604 37.1823 365.187 37.3799Z" fill="#AA6550"/>
<path d="M306.423 39.4887C306.423 40.8291 314.286 79.4111 314.286 79.4111L329.586 94.1984C329.586 94.1984 332.147 115.688 327.537 117.412C327.537 117.412 297.971 84.5935 297.399 82.1005C296.827 79.6075 292.601 52.9185 297.399 37.3713L306.423 39.4887Z" fill="#B7796B"/>
<path d="M310.811 22.4047C310.811 22.4047 301.42 26.6223 299.712 30.2679C298.652 32.5306 297.877 34.9168 297.407 37.3713L306.432 39.4886L319.289 34.1099C319.289 34.1099 330.559 24.5135 330.303 23.9414C330.047 23.3694 329.449 21.4399 327.93 22.4047C326.41 23.3694 319.477 27.7749 319.477 27.7749C319.477 27.7749 328.689 18.9469 327.733 18.3834C326.777 17.8199 325.044 17.615 323.319 19.3396C321.505 20.9448 319.579 22.4198 317.556 23.7536C317.556 23.7536 324.088 15.694 323.123 15.3098C322.158 14.9256 315.712 20.2958 313.851 22.029C311.99 23.7622 318.12 15.6513 316.6 15.2927C315.08 14.9341 314.013 17.4357 312.75 19.1432C311.972 20.1465 311.321 21.2419 310.811 22.4047Z" fill="#B7796B"/>
<path d="M307.823 36.5773C308.144 36.3767 308.484 36.2107 308.839 36.0821L311.691 34.8868L313.672 34.033C314.424 33.7447 315.155 33.4023 315.857 33.0085C316.624 32.5856 317.272 31.9781 317.744 31.2412C317.991 30.8678 318.154 30.4463 318.225 30.0047C318.296 29.5631 318.272 29.1114 318.154 28.6799L318.41 28.825H318.282C316.412 29.3288 314.867 30.7119 313.023 30.9509C312.166 31.0241 311.305 30.8771 310.521 30.524C309.87 30.2507 309.183 30.0724 308.481 29.9947C307.457 29.8902 306.423 30.0096 305.45 30.3447C304.758 30.5838 304.408 30.7972 304.391 30.7546C304.374 30.7119 304.46 30.6863 304.63 30.5753C304.873 30.4244 305.127 30.293 305.39 30.1825C306.376 29.7757 307.443 29.6033 308.506 29.6788C309.238 29.7401 309.957 29.9069 310.641 30.174C311.374 30.4931 312.176 30.6195 312.972 30.5411C314.679 30.3191 316.148 28.9531 318.171 28.3981H318.316L318.513 28.3384L318.572 28.5433C318.715 29.0419 318.749 29.5655 318.671 30.0783C318.593 30.5911 318.405 31.0809 318.12 31.5144C317.605 32.3042 316.9 32.9528 316.071 33.4012C315.345 33.7993 314.588 34.1391 313.808 34.4172L311.811 35.1771L308.908 36.2187C308.56 36.376 308.197 36.4962 307.823 36.5773Z" fill="#AA6550"/>
<path d="M301.532 70.7625C301.281 70.5508 301.076 70.2902 300.929 69.9966C300.782 69.703 300.697 69.3826 300.678 69.0549C300.627 68.7268 300.627 68.3927 300.678 68.0645C300.77 67.7371 300.811 67.3971 300.797 67.0571C300.703 66.7163 300.499 66.4162 300.217 66.2033C299.816 65.9276 299.517 65.529 299.363 65.0678C299.322 64.8005 299.38 64.5275 299.525 64.2994C299.647 64.1165 299.778 63.9399 299.918 63.7701C300.033 63.655 300.11 63.507 300.138 63.3463C300.165 63.1857 300.142 63.0205 300.072 62.8736C299.926 62.5662 299.679 62.293 299.5 62.0198C299.318 61.7258 299.213 61.3914 299.192 61.0465C299.155 60.5587 299.288 60.073 299.568 59.672C299.764 59.3988 299.935 59.3134 299.952 59.3305C299.969 59.3475 299.85 59.4927 299.713 59.7659C299.52 60.1541 299.446 60.5907 299.5 61.0209C299.54 61.3084 299.645 61.5829 299.807 61.8235C300.04 62.1091 300.251 62.4115 300.439 62.7285C300.551 62.9406 300.596 63.1818 300.567 63.42C300.522 63.6576 300.419 63.8805 300.268 64.0689C300.003 64.4189 299.73 64.7092 299.798 65.0336C299.935 65.6996 301.036 66.0667 301.182 67.04C301.19 67.4227 301.132 67.8039 301.011 68.167C300.954 68.4622 300.934 68.7633 300.951 69.0635C301.047 69.6584 301.244 70.2329 301.532 70.7625Z" fill="#AA6550"/>
<path d="M303.282 70.788C303.033 70.574 302.83 70.3129 302.684 70.0198C302.537 69.7267 302.45 69.4074 302.428 69.0804C302.386 68.7516 302.386 68.4188 302.428 68.09C302.518 67.762 302.561 67.4228 302.556 67.0826C302.461 66.7401 302.253 66.4394 301.967 66.2288C301.57 65.9492 301.272 65.552 301.113 65.0933C301.07 64.8221 301.131 64.5447 301.284 64.3164C301.405 64.1356 301.536 63.9618 301.677 63.7956C301.792 63.6789 301.869 63.5288 301.895 63.3664C301.921 63.2041 301.895 63.0376 301.822 62.8906C301.646 62.596 301.455 62.311 301.25 62.0368C301.034 61.6819 300.926 61.2721 300.938 60.857C300.95 60.4419 301.082 60.0392 301.318 59.6974C301.523 59.4242 301.685 59.3303 301.702 59.3474C301.719 59.3645 301.608 59.5096 301.463 59.7828C301.278 60.1736 301.207 60.6086 301.258 61.0379C301.295 61.3248 301.397 61.5993 301.557 61.8404C301.793 62.1287 302.007 62.4341 302.197 62.754C302.304 62.9648 302.345 63.2025 302.317 63.437C302.275 63.6739 302.175 63.8968 302.027 64.0858C301.762 64.4359 301.48 64.7347 301.557 65.0506C301.685 65.7251 302.786 66.0837 302.932 67.057C302.943 67.442 302.888 67.8261 302.769 68.1925C302.709 68.4728 302.686 68.7599 302.701 69.0462C302.802 69.6538 302.998 70.2416 303.282 70.788Z" fill="#AA6550"/>
<path d="M415.578 337.797C415.578 337.797 416.764 343.423 416.781 344.422L420.973 347.666L431.048 344.883L431.483 336.508L415.578 337.797Z" fill="#263238"/>
<path d="M431.176 343.628L431.236 344.533C431.236 344.533 446.945 349.741 447.287 352.644L416.841 354.352L416.679 344.2C418.995 345.15 421.489 345.59 423.99 345.491C426.491 345.393 428.942 344.757 431.176 343.628Z" fill="#455A64"/>
<g opacity="0.6">
<path opacity="0.6" d="M416.843 354.36V351.918L446.033 351.167C446.033 351.167 447.425 351.679 447.322 352.644L416.843 354.36Z" fill="white"/>
</g>
<path d="M431.348 344.61C431.348 344.755 430.614 344.866 429.914 345.387C429.214 345.907 428.855 346.556 428.71 346.505C428.565 346.454 428.71 345.583 429.564 344.968C430.417 344.354 431.374 344.473 431.348 344.61Z" fill="#263238"/>
<path d="M434.617 345.754C434.617 345.891 434.028 346.181 433.558 346.838C433.089 347.496 432.986 348.17 432.833 348.17C432.679 348.17 432.542 347.317 433.14 346.531C433.738 345.746 434.608 345.609 434.617 345.754Z" fill="#263238"/>
<path d="M436.65 349.468C436.513 349.51 436.265 348.776 436.598 347.939C436.931 347.103 437.614 346.744 437.683 346.864C437.751 346.983 437.35 347.444 437.085 348.136C436.82 348.827 436.795 349.451 436.65 349.468Z" fill="#263238"/>
<path d="M369.756 337.728C369.756 337.728 368.57 343.355 368.553 344.354L364.361 347.598L354.277 344.815L353.851 336.439L369.756 337.728Z" fill="#263238"/>
<path d="M354.149 343.577L354.098 344.482C354.098 344.482 338.389 349.69 338.039 352.592L368.493 354.3L368.646 344.149C366.33 345.098 363.837 345.538 361.336 345.44C358.834 345.341 356.383 344.706 354.149 343.577Z" fill="#455A64"/>
<g opacity="0.6">
<path opacity="0.6" d="M368.493 354.292V351.85L339.294 351.099C339.294 351.099 337.911 351.611 338.005 352.576L368.493 354.292Z" fill="white"/>
</g>
<path d="M353.979 344.542C353.979 344.695 354.722 344.798 355.422 345.319C356.122 345.839 356.48 346.488 356.625 346.437C356.771 346.386 356.625 345.515 355.729 344.9C354.833 344.286 353.962 344.431 353.979 344.542Z" fill="#263238"/>
<path d="M350.717 345.686C350.675 345.822 351.298 346.113 351.768 346.77C352.237 347.427 352.348 348.102 352.493 348.102C352.638 348.102 352.792 347.248 352.186 346.463C351.58 345.677 350.726 345.541 350.717 345.686Z" fill="#263238"/>
<path d="M348.685 349.399C348.821 349.442 349.069 348.708 348.728 347.871C348.386 347.034 347.72 346.676 347.652 346.795C347.583 346.915 347.985 347.376 348.249 348.067C348.514 348.759 348.54 349.382 348.685 349.399Z" fill="#263238"/>
<path d="M348.744 52.1843L347.891 52.3466C343.706 53.1358 339.972 55.4713 337.432 58.8883C334.891 62.3054 333.73 66.5537 334.179 70.788C335.033 78.9586 336.109 87.9659 336.979 92.2689C338.772 101.191 347.976 100.892 347.976 100.892L348.215 102.267C348.482 103.814 349.056 105.292 349.904 106.613C350.752 107.935 351.855 109.073 353.15 109.962C354.445 110.85 355.904 111.469 357.443 111.784C358.981 112.099 360.566 112.103 362.106 111.795C365.08 111.203 367.71 109.485 369.447 107C371.185 104.515 371.895 101.455 371.429 98.4588L366.622 67.4413C365.683 58.0156 358.136 50.9805 348.744 52.1843Z" fill="#B7796B"/>
<path d="M338.85 76.406C338.908 76.7384 339.095 77.0346 339.369 77.231C339.644 77.4274 339.985 77.5082 340.318 77.4561C340.483 77.4393 340.642 77.3896 340.787 77.31C340.932 77.2304 341.06 77.1226 341.163 76.9929C341.265 76.8631 341.341 76.7141 341.385 76.5547C341.429 76.3952 341.441 76.2285 341.419 76.0645C341.361 75.7298 341.173 75.4314 340.897 75.2334C340.621 75.0355 340.278 74.9538 339.942 75.0058C339.778 75.0236 339.618 75.0744 339.474 75.1549C339.329 75.2355 339.202 75.3443 339.1 75.4749C338.998 75.6054 338.923 75.7551 338.88 75.915C338.837 76.075 338.827 76.2419 338.85 76.406Z" fill="#263238"/>
<path d="M336.699 74.3569C336.887 74.4935 337.715 73.5971 339.089 73.3409C340.464 73.0848 341.599 73.58 341.719 73.3836C341.838 73.1873 341.557 73.0251 341.061 72.786C340.388 72.4921 339.641 72.4087 338.918 72.5469C338.204 72.6817 337.55 73.0371 337.049 73.5629C336.656 73.9727 336.605 74.2972 336.699 74.3569Z" fill="#263238"/>
<path d="M351.563 74.2543C351.623 74.5857 351.81 74.8806 352.085 75.0766C352.359 75.2725 352.698 75.3543 353.031 75.3044C353.196 75.2865 353.356 75.2358 353.501 75.1554C353.646 75.0749 353.774 74.9663 353.876 74.8359C353.979 74.7055 354.054 74.5559 354.098 74.3959C354.142 74.2359 354.154 74.0688 354.133 73.9043C354.072 73.5728 353.885 73.278 353.611 73.082C353.337 72.886 352.997 72.8043 352.664 72.8541C352.499 72.8709 352.338 72.9209 352.193 73.001C352.047 73.0811 351.919 73.1897 351.816 73.3204C351.713 73.4511 351.638 73.6011 351.594 73.7615C351.551 73.922 351.54 74.0896 351.563 74.2543Z" fill="#263238"/>
<path d="M350.316 71.3857C350.487 71.548 351.409 70.7454 352.8 70.6344C354.192 70.5234 355.276 71.1467 355.413 70.9674C355.549 70.7881 355.293 70.5917 354.824 70.3014C354.184 69.9364 353.449 69.7728 352.715 69.8319C351.991 69.8866 351.303 70.1707 350.751 70.643C350.316 71.0015 350.222 71.3174 350.316 71.3857Z" fill="#263238"/>
<path d="M347.395 83.6288C346.629 83.5361 345.855 83.5361 345.09 83.6288C344.731 83.6288 344.39 83.6288 344.287 83.4239C344.178 83.0708 344.178 82.6927 344.287 82.3396L344.825 79.4709C345.542 75.3985 345.995 72.0773 345.833 72.0517C345.67 72.026 344.979 75.296 344.228 79.377L343.741 82.2457C343.601 82.7098 343.628 83.2082 343.818 83.6544C343.892 83.7688 343.992 83.865 344.108 83.9359C344.225 84.0068 344.356 84.0507 344.492 84.0642C344.696 84.0915 344.903 84.0915 345.107 84.0642C345.886 84.0243 346.656 83.8778 347.395 83.6288Z" fill="#263238"/>
<path d="M351.621 83.8165C351.391 83.8165 351.673 85.3362 350.597 86.6425C349.521 87.9488 347.899 88.0768 347.933 88.2818C347.967 88.4867 348.334 88.5037 349.009 88.4013C349.886 88.2491 350.681 87.7926 351.254 87.1121C351.805 86.4592 352.078 85.6162 352.014 84.7642C351.954 84.1324 351.715 83.7909 351.621 83.8165Z" fill="#263238"/>
<path d="M349.616 66.8351C349.795 67.2022 351.161 66.8351 352.817 66.9034C354.474 66.9717 355.831 67.2449 356.011 66.9034C356.096 66.7241 355.823 66.3997 355.259 66.0496C354.505 65.6673 353.671 65.4684 352.826 65.4691C351.981 65.4599 351.145 65.6469 350.384 66.0155C349.812 66.3314 349.539 66.6644 349.616 66.8351Z" fill="#CBCBCB"/>
<path d="M336.656 70.7282C336.954 71.0015 337.842 70.4977 338.978 70.2672C340.113 70.0367 341.112 70.0794 341.275 69.7123C341.343 69.533 341.129 69.2512 340.651 69.0378C340.025 68.7755 339.331 68.7188 338.671 68.8756C338.017 69.028 337.423 69.3695 336.963 69.8574C336.604 70.2501 336.536 70.6002 336.656 70.7282Z" fill="#CBCBCB"/>
<path d="M359.041 54.464C359.442 54.1652 361.602 55.8813 362.038 56.1715C364.446 57.8108 365.82 61.2942 366.477 64.1372C367.177 66.8356 367.519 69.6143 367.493 72.4017C367.493 72.7603 367.493 74.2715 367.493 74.2715C367.152 74.6642 367.186 77.9256 366.64 78.0366C365.923 78.1818 364.591 73.3665 364.403 73.0079C364.139 71.908 363.794 70.8293 363.37 69.7807C362.642 68.1066 362.07 66.3689 361.662 64.5897C361.21 62.1052 359.775 58.5109 359.314 56.052C359.22 55.5568 358.665 54.7543 359.041 54.464Z" fill="#CBCBCB"/>
<path d="M361.535 57.8876C358.297 54.7026 354 52.8213 349.463 52.6027C348.439 52.4764 347.403 52.6862 346.509 53.2004C346.039 53.5976 345.607 54.0378 345.22 54.5152C344.82 54.9894 344.256 55.2945 343.64 55.369C343.025 55.369 342.377 54.8567 342.479 54.2505C345.72 52.2741 349.56 51.5216 353.307 52.1291C357.054 52.7367 360.46 54.664 362.91 57.5632" fill="#CBCBCB"/>
<path d="M359.707 57.7422L365.427 60.8328C365.804 61.7605 366.115 62.7134 366.358 63.6844L360.749 61.2L359.707 57.7422Z" fill="#FAFAFA"/>
<path d="M366.11 74.3141C366.255 74.2201 371.907 71.3429 372.872 77.4901C373.837 83.6372 367.459 83.3299 367.416 83.1506C367.373 82.9713 366.11 74.3141 366.11 74.3141Z" fill="#B7796B"/>
<path d="M368.936 80.5297C368.936 80.5297 369.056 80.5894 369.244 80.6492C369.516 80.7173 369.803 80.6775 370.046 80.5382C370.402 80.2245 370.668 79.8223 370.818 79.3725C370.968 78.9227 370.996 78.4412 370.9 77.9769C370.831 77.4486 370.647 76.9416 370.362 76.4913C370.274 76.3082 370.142 76.1495 369.979 76.029C369.815 75.9084 369.624 75.8297 369.423 75.7998C369.295 75.785 369.167 75.8166 369.06 75.8886C368.954 75.9607 368.876 76.0685 368.843 76.1925C368.783 76.3718 368.843 76.4913 368.843 76.5084C368.843 76.5255 368.697 76.423 368.706 76.1584C368.72 76.0035 368.783 75.857 368.885 75.74C369.038 75.5883 369.242 75.4999 369.457 75.4924C369.717 75.5016 369.97 75.5779 370.192 75.7141C370.413 75.8503 370.595 76.0416 370.721 76.2694C371.07 76.7587 371.291 77.3284 371.361 77.9257C371.515 79.1722 371.062 80.4272 370.217 80.82C370.059 80.8939 369.887 80.9322 369.713 80.9322C369.539 80.9322 369.367 80.8939 369.21 80.82C368.971 80.6834 368.919 80.5468 368.936 80.5297Z" fill="#AA6550"/>
<path d="M347.857 100.892C352.133 100.17 356.096 98.1868 359.238 95.197C359.238 95.197 357.735 102.471 348.369 103.385L347.857 100.892Z" fill="#AA6550"/>
<path d="M342.401 77.5838C341.828 78.1825 341.082 78.5867 340.267 78.7398C339.453 78.8929 338.611 78.7872 337.859 78.4376C337.859 78.3095 338.935 78.5571 340.19 78.301C341.445 78.0449 342.325 77.4814 342.401 77.5838Z" fill="#AA6550"/>
<path d="M341.907 72.8286C341.856 72.8798 341.651 72.7005 341.275 72.5468C340.781 72.3417 340.246 72.2541 339.713 72.2907C339.165 72.3369 338.622 72.4312 338.091 72.5724C337.664 72.6749 337.391 72.7176 337.373 72.6578C337.356 72.598 337.587 72.4614 337.988 72.2821C338.529 72.0443 339.106 71.9 339.696 71.8553C340.294 71.8219 340.888 71.9676 341.403 72.2736C341.779 72.5297 341.95 72.8029 341.907 72.8286Z" fill="#AA6550"/>
<path d="M359.228 70.0537C359.322 70.122 358.887 70.7879 358.033 71.1721C357.179 71.5563 356.394 71.4709 356.402 71.36C356.411 71.249 357.094 71.138 357.845 70.7794C358.597 70.4208 359.134 69.9768 359.228 70.0537Z" fill="#AA6550"/>
<path d="M359.921 71.8809C359.998 71.9663 359.451 72.4615 358.589 72.5042C357.727 72.5469 357.129 72.1285 357.197 72.0346C357.266 71.9407 357.838 72.12 358.563 72.0773C359.289 72.0346 359.852 71.7785 359.921 71.8809Z" fill="#AA6550"/>
<path d="M355.558 70.1392C354.717 69.8134 353.823 69.6455 352.92 69.644C352.022 69.7712 351.154 70.0605 350.359 70.4978C350.359 70.4978 350.504 70.1904 350.931 69.8745C351.497 69.4667 352.165 69.2216 352.86 69.1659C353.555 69.1167 354.25 69.2522 354.875 69.5586C355.371 69.8489 355.593 70.0879 355.558 70.1392Z" fill="#AA6550"/>
<path d="M355.046 75.0739C355.131 75.1422 354.593 75.8679 353.577 76.2436C353.29 76.3904 352.974 76.474 352.652 76.4887C352.329 76.5034 352.007 76.4489 351.708 76.3289C351.708 76.2009 352.519 76.1838 353.415 75.8423C354.312 75.5008 354.952 74.9885 355.046 75.0739Z" fill="#AA6550"/>
<path d="M352.783 83.7482C352.689 83.8336 352.33 83.5604 351.81 83.5433C351.289 83.5263 350.905 83.7141 350.819 83.6287C350.734 83.5433 351.127 83.0652 351.835 83.1079C352.544 83.1506 352.877 83.6885 352.783 83.7482Z" fill="#AA6550"/>
<path d="M353.815 83.1764C353.713 83.2447 353.431 82.9971 353.013 82.8349C352.594 82.6727 352.227 82.647 352.159 82.519C352.091 82.3909 352.594 82.2202 353.132 82.4421C353.67 82.6641 353.918 83.1764 353.815 83.1764Z" fill="#AA6550"/>
<path d="M363.84 90.9028C363.84 90.9028 363.985 90.9541 364.053 91.2016C364.08 91.5234 364.048 91.8475 363.959 92.1579C363.931 92.2453 363.921 92.3376 363.93 92.4291C363.939 92.5206 363.966 92.6092 364.011 92.6894C364.056 92.7696 364.117 92.8396 364.191 92.8951C364.264 92.9506 364.348 92.9902 364.437 93.0117C364.722 93.1057 364.985 93.2535 365.214 93.4471C365.334 93.5804 365.421 93.741 365.465 93.915C365.51 94.089 365.512 94.2712 365.47 94.446C365.283 94.9848 365.052 95.5074 364.779 96.0084C364.722 96.2019 364.715 96.4066 364.759 96.6035C364.802 96.8004 364.894 96.9833 365.026 97.1354C365.496 97.7159 365.94 97.9891 365.88 98.0489C365.45 97.9284 365.069 97.6779 364.787 97.3317C364.6 97.1493 364.465 96.9201 364.396 96.668C364.327 96.4158 364.326 96.1498 364.394 95.8974C364.548 95.3339 364.958 94.8899 365.035 94.3691C365.066 94.2607 365.07 94.1463 365.046 94.0361C365.022 93.9258 364.971 93.8232 364.898 93.7373C364.711 93.5805 364.497 93.459 364.266 93.3788C364.126 93.3309 363.998 93.2536 363.891 93.1519C363.783 93.0503 363.699 92.9268 363.643 92.7897C363.566 92.5511 363.566 92.294 363.643 92.0554C363.75 91.7803 363.824 91.4938 363.865 91.2016C363.882 91.0309 363.805 90.9199 363.84 90.9028Z" fill="#AA6550"/>
<path d="M368.466 96.4781C368.466 96.4781 368.074 96.2902 367.613 95.7267C367.349 95.3753 367.214 94.9447 367.228 94.5058C367.228 93.9594 367.706 93.524 367.595 93.2081C367.484 92.8922 366.998 92.6958 366.588 92.4482C366.396 92.3273 366.238 92.158 366.132 91.9572C366.026 91.7564 365.974 91.5313 365.982 91.3042C365.97 90.9921 366.077 90.6871 366.281 90.4504C366.426 90.3053 366.537 90.2711 366.554 90.2882C366.371 90.5762 366.279 90.9122 366.289 91.253C366.291 91.428 366.339 91.5995 366.429 91.7496C366.519 91.8997 366.648 92.023 366.801 92.1067C366.972 92.2092 367.186 92.286 367.425 92.4226C367.698 92.5602 367.906 92.7992 368.005 93.0886C368.034 93.2351 368.034 93.386 368.005 93.5325C367.976 93.679 367.918 93.8183 367.834 93.9423C367.723 94.1185 367.65 94.3164 367.621 94.5229C367.606 94.8809 367.691 95.236 367.869 95.5474C368.244 96.1109 368.518 96.4354 368.466 96.4781Z" fill="#AA6550"/>
<path d="M350.316 61.8318C349.977 62.2205 349.505 62.4675 348.992 62.5233C348.087 62.7624 346.773 62.6087 345.577 63.0612C344.971 63.3174 344.433 63.7016 343.87 63.9833C343.385 64.2634 342.841 64.4243 342.282 64.4529C341.899 64.4735 341.519 64.3718 341.197 64.1626C340.975 64.0089 340.899 63.8723 340.924 63.8552C341.331 64.0868 341.799 64.1881 342.265 64.1455C342.769 64.0824 343.253 63.9074 343.682 63.6332C344.226 63.2694 344.797 62.9469 345.389 62.6685C346.025 62.4396 346.695 62.3212 347.37 62.3184C347.968 62.3184 348.497 62.3184 348.941 62.2245C349.41 62.1333 349.87 62.0019 350.316 61.8318Z" fill="#AA6550"/>
<path d="M348.053 60.7734C346.941 61.1295 345.798 61.3782 344.638 61.5162C343.49 61.7947 342.318 61.9634 341.138 62.0199C342.224 61.5449 343.375 61.2341 344.553 61.0978C345.698 60.8224 346.877 60.7132 348.053 60.7734Z" fill="#AA6550"/>
<path d="M346.594 59.4843C346.594 59.6038 345.962 59.5953 345.228 59.6379C344.494 59.6806 343.896 59.7319 343.862 59.6379C343.828 59.544 344.425 59.2623 345.211 59.2281C345.996 59.194 346.611 59.3733 346.594 59.4843Z" fill="#AA6550"/>
<path d="M336.698 75.4922C336.766 75.5861 336.331 75.9191 335.733 75.7825C335.135 75.6459 334.879 75.1763 334.973 75.1165C335.067 75.0568 335.383 75.2787 335.827 75.3641C336.271 75.4495 336.655 75.3897 336.698 75.4922Z" fill="#AA6550"/>
<path d="M336.246 76.269C336.305 76.38 336.109 76.5934 335.955 76.8923C335.802 77.1911 335.716 77.4643 335.597 77.4728C335.477 77.4814 335.349 77.1057 335.597 76.6874C335.844 76.269 336.194 76.1666 336.246 76.269Z" fill="#AA6550"/>
<path d="M350.528 201.304C350.528 201.304 351.698 232.219 351.92 236.693C352.142 241.167 353.713 276.931 353.26 280.287C352.808 283.642 350.067 330.138 353.346 335.953L353.431 340.879L369.525 341.647C369.525 341.647 376.065 283.19 377.405 279.39C378.745 275.591 387.471 229.76 387.471 229.76C387.471 229.76 398.869 271.595 399.765 274.251C400.662 276.906 407.816 318.963 410.941 328.132C412.787 333.401 413.988 338.873 414.519 344.431L432.183 342.194C432.183 342.194 430.168 274.011 427.709 262.793C425.25 251.574 413.631 189.044 413.631 189.044L408.935 179.653L350.528 201.304Z" fill="#9A9A9A"/>
<g opacity="0.3">
<path opacity="0.3" d="M409.919 181.812C409.701 181.736 409.463 181.736 409.244 181.812C389.591 186.804 370.182 192.653 351.017 199.357L350.573 201.722C352.505 202.255 354.527 202.371 356.507 202.064C369.177 200.922 381.638 198.097 393.561 193.663C399.657 191.4 405.864 188.54 409.825 183.358C410.201 182.897 410.465 182.06 409.919 181.812Z" fill="black"/>
</g>
<path d="M383.766 201.85C383.752 201.72 383.752 201.588 383.766 201.458C383.773 201.078 383.822 200.7 383.911 200.331C384.249 198.957 385.082 197.756 386.251 196.958C386.638 196.656 387.109 196.483 387.6 196.463C387.746 196.467 387.89 196.502 388.021 196.567C388.152 196.632 388.268 196.725 388.36 196.839C388.529 197.075 388.619 197.359 388.616 197.65C388.578 198.227 388.404 198.786 388.107 199.282C387.81 199.778 387.399 200.196 386.908 200.501C385.858 201.182 384.625 201.528 383.374 201.492C382.075 201.45 380.782 201.307 379.506 201.065L375.681 200.476C375.04 200.44 374.412 200.275 373.837 199.989C373.672 199.899 373.535 199.766 373.442 199.603C373.349 199.44 373.302 199.255 373.308 199.067C373.329 198.885 373.403 198.712 373.519 198.57C373.636 198.428 373.79 198.322 373.965 198.265C374.535 198.087 375.144 198.069 375.724 198.213C376.262 198.299 376.782 198.401 377.286 198.504C378.217 198.707 379.138 198.958 380.044 199.255C381.352 199.685 382.623 200.221 383.843 200.86C384.27 201.082 384.603 201.27 384.816 201.406C385.03 201.543 385.149 201.62 385.141 201.637C385.132 201.654 384.646 201.415 383.766 201.014C382.527 200.441 381.249 199.956 379.941 199.562C379.044 199.282 378.132 199.052 377.209 198.871C376.714 198.768 376.202 198.674 375.664 198.598C375.154 198.474 374.621 198.489 374.119 198.64C374.012 198.669 373.917 198.73 373.848 198.816C373.778 198.901 373.738 199.007 373.732 199.117C373.726 199.227 373.756 199.336 373.816 199.428C373.876 199.521 373.964 199.592 374.067 199.631C374.605 199.877 375.184 200.019 375.775 200.049L379.6 200.63C380.855 200.86 382.124 201.002 383.399 201.056C384.562 201.115 385.714 200.817 386.703 200.203C387.141 199.937 387.511 199.573 387.783 199.138C388.054 198.704 388.219 198.211 388.266 197.701C388.281 197.601 388.276 197.498 388.251 197.4C388.225 197.302 388.18 197.21 388.117 197.13C388.055 197.05 387.977 196.984 387.888 196.935C387.799 196.887 387.701 196.857 387.6 196.847C387.179 196.864 386.773 197.01 386.439 197.266C385.308 198.009 384.476 199.128 384.091 200.425C383.958 200.894 383.85 201.37 383.766 201.85Z" fill="#263238"/>
<path d="M357.47 339.752C357.461 339.633 357.461 339.513 357.47 339.393C357.47 339.137 357.47 338.787 357.47 338.343C357.47 337.396 357.521 336.038 357.564 334.296C357.649 330.787 357.786 325.707 357.897 319.424C358.127 306.865 358.281 289.542 357.957 270.349C357.769 260.761 357.487 251.634 357.103 243.344C356.719 235.054 356.249 227.583 355.771 221.325C355.652 219.754 355.532 218.269 355.421 216.851C355.31 215.434 355.173 214.119 355.054 212.881C354.823 210.397 354.636 208.254 354.422 206.512L353.987 202.491C353.944 202.047 353.91 201.697 353.893 201.441C353.881 201.322 353.881 201.202 353.893 201.082C353.928 201.196 353.951 201.314 353.961 201.432C353.961 201.688 354.046 202.039 354.106 202.474C354.226 203.422 354.397 204.762 354.618 206.487C354.84 208.211 355.071 210.371 355.327 212.856C355.455 214.094 355.592 215.417 355.728 216.826C355.865 218.235 355.976 219.729 356.113 221.3C356.659 227.558 357.111 235.028 357.538 243.327C357.965 251.626 358.221 260.752 358.392 270.34C358.717 289.507 358.52 306.873 358.196 319.432C358.059 325.716 357.871 330.796 357.726 334.305C357.649 336.012 357.59 337.396 357.547 338.343C357.547 338.787 357.504 339.137 357.487 339.393C357.491 339.513 357.485 339.633 357.47 339.752Z" fill="#263238"/>
<path d="M359.707 339.41C359.694 339.291 359.694 339.171 359.707 339.052C359.707 338.796 359.707 338.446 359.707 338.002C359.707 337.054 359.758 335.696 359.801 333.955C359.895 330.446 360.031 325.366 360.134 319.082C360.373 306.523 360.518 289.2 360.193 270.007C360.014 260.428 359.724 251.301 359.34 243.002C358.955 234.704 358.486 227.242 357.999 220.984L357.658 216.518C357.521 215.11 357.402 213.778 357.282 212.54C357.06 210.055 356.864 207.912 356.65 206.171C356.437 204.429 356.326 203.089 356.223 202.149L356.121 201.099C356.111 200.98 356.111 200.86 356.121 200.741C356.15 200.859 356.17 200.978 356.181 201.099C356.181 201.347 356.266 201.697 356.326 202.141L356.847 206.154C357.077 207.861 357.299 210.03 357.547 212.514L357.957 216.493C358.076 217.902 358.196 219.396 358.332 220.958C358.879 227.216 359.34 234.687 359.758 242.985C360.176 251.284 360.45 260.411 360.612 269.999C360.936 289.174 360.74 306.532 360.424 319.091C360.279 325.374 360.091 330.454 359.954 333.963C359.878 335.671 359.809 337.062 359.767 338.002C359.767 338.454 359.724 338.796 359.715 339.06C359.707 339.325 359.707 339.41 359.707 339.41Z" fill="#263238"/>
<path d="M401.354 207.699C401.465 207.759 397.64 214.256 392.816 222.213C387.992 230.17 383.997 236.548 383.894 236.488C383.792 236.428 387.617 229.931 392.432 221.974C397.247 214.017 401.251 207.63 401.354 207.699Z" fill="#263238"/>
<path d="M430.109 342.304C430.109 342.304 430.109 342.168 430.058 341.895C430.007 341.621 429.998 341.195 429.955 340.674C429.878 339.589 429.759 338.01 429.614 335.995C429.341 331.906 428.939 326.032 428.453 318.775C427.966 311.517 427.445 302.826 426.839 293.213C426.566 288.406 426.284 283.351 425.985 278.118C425.84 275.497 425.832 272.824 425.49 270.152C425.149 267.48 424.747 264.756 424.32 262.016C422.613 251.028 420.675 240.603 418.942 231.126C417.208 221.649 415.603 213.12 414.271 205.949C413.597 202.371 412.991 199.118 412.453 196.284C412.171 194.867 411.966 193.518 411.685 192.322C411.411 191.232 411.04 190.169 410.575 189.146C409.943 187.719 409.185 186.351 408.312 185.057C408.013 184.613 407.774 184.28 407.612 184.058C407.45 183.836 407.373 183.716 407.373 183.716C407.373 183.716 407.476 183.819 407.646 184.032C407.817 184.246 408.073 184.57 408.38 185.005C409.294 186.282 410.083 187.643 410.737 189.069C411.213 190.101 411.599 191.172 411.889 192.271C412.188 193.492 412.41 194.832 412.743 196.233C413.29 199.076 413.921 202.311 414.622 205.889C416.005 213.043 417.635 221.573 419.394 231.049C421.153 240.526 423.048 250.951 424.807 261.939C425.234 264.688 425.661 267.412 425.968 270.101C426.276 272.79 426.318 275.488 426.463 278.101C426.754 283.334 427.027 288.346 427.317 293.195C427.889 302.809 428.401 311.466 428.837 318.749C429.272 326.032 429.614 331.897 429.853 335.987C429.964 338.001 430.049 339.581 430.109 340.674C430.109 341.195 430.16 341.596 430.169 341.895C430.177 342.193 430.109 342.304 430.109 342.304Z" fill="#263238"/>
<path d="M428.461 342.569C428.461 342.569 428.461 342.424 428.41 342.151C428.359 341.878 428.35 341.459 428.308 340.939C428.231 339.854 428.111 338.283 427.966 336.277C427.693 332.204 427.3 326.348 426.814 319.116C426.327 311.885 425.806 303.236 425.208 293.657C424.935 288.858 424.645 283.83 424.355 278.613C424.201 276.001 424.193 273.328 423.877 270.673C423.561 268.018 423.142 265.294 422.724 262.562C421.016 251.617 419.095 241.218 417.371 231.784C415.646 222.35 414.041 213.855 412.718 206.7C412.043 203.131 411.437 199.87 410.908 197.061C410.635 195.652 410.404 194.32 410.165 193.116C409.94 192.02 409.626 190.943 409.226 189.898C408.636 188.457 407.91 187.076 407.057 185.774C406.767 185.33 406.536 184.997 406.374 184.775C406.285 184.668 406.206 184.554 406.135 184.434C406.135 184.434 406.238 184.536 406.408 184.749C406.579 184.963 406.835 185.279 407.134 185.723C408.022 187.011 408.774 188.387 409.38 189.829C409.821 190.875 410.167 191.958 410.413 193.065C410.669 194.278 410.908 195.627 411.19 197.01C411.745 199.844 412.376 203.071 413.068 206.632C414.4 213.803 416.056 222.264 417.764 231.733C419.471 241.201 421.409 251.566 423.159 262.468C423.578 265.209 424.013 267.924 424.303 270.605C424.594 273.286 424.628 275.966 424.782 278.57C425.063 283.787 425.345 288.816 425.635 293.614C426.207 303.193 426.72 311.825 427.147 319.082C427.573 326.339 427.924 332.17 428.163 336.251C428.274 338.258 428.367 339.829 428.427 340.921C428.427 341.442 428.427 341.844 428.478 342.134C428.53 342.424 428.461 342.569 428.461 342.569Z" fill="#263238"/>
<g opacity="0.3">
<path opacity="0.3" d="M399.278 210.772C395.863 216.629 391.868 223.579 387.625 230.315C391.242 228.525 394.266 225.729 396.333 222.262C398.4 218.796 399.423 214.806 399.278 210.772Z" fill="black"/>
</g>
<path d="M328.741 93.1567C328.741 93.1567 330.337 110.599 321.176 111.496L334.837 128.033L343.784 157.992C343.784 157.992 344.006 201.816 345.347 202.038C346.687 202.26 381.564 194.884 388.496 192.869C395.429 190.854 409.73 182.367 409.73 182.367V179.652L417.781 178.312L405.708 142.769L396.769 100.286L394.31 77.712C394.31 77.712 389.939 83.0822 384.398 80.8966C375.186 77.268 374.153 75.4751 374.153 75.4751L371.856 90.843L370.934 87.6072L365.436 96.4523C365.436 96.4523 359.4 103.829 360.313 109.421L349.581 103.88L345.705 101.797L344.681 103.88L328.741 93.1567Z" fill="#368691"/>
<path d="M336.254 123.363C336.311 122.551 336.422 121.744 336.587 120.947C336.818 119.453 337.108 117.395 337.305 115.107C337.501 112.819 337.578 110.744 337.603 109.242C337.571 108.427 337.602 107.61 337.697 106.8C337.852 107.605 337.927 108.423 337.919 109.242C337.976 111.213 337.919 113.185 337.748 115.15C337.583 117.115 337.298 119.068 336.895 120.998C336.777 121.809 336.562 122.603 336.254 123.363Z" fill="#263238"/>
<path d="M376.339 108.337C376.194 107.463 376.094 106.583 376.04 105.699C375.576 101.457 374.51 97.3024 372.872 93.3617C372.249 91.8506 371.805 90.9285 371.865 90.9029C371.925 90.8773 372.036 91.0992 372.266 91.5005C372.497 91.9018 372.804 92.4909 373.163 93.2081C374.066 95.1623 374.792 97.1939 375.331 99.2784C375.867 101.362 376.207 103.492 376.347 105.639C376.398 106.493 376.415 107.133 376.398 107.594C376.423 107.843 376.402 108.095 376.339 108.337Z" fill="#263238"/>
<path d="M383.844 120.161C383.734 119.751 383.665 119.331 383.639 118.906C383.545 118.095 383.374 116.926 383.127 115.491C381.813 107.98 378.999 100.811 374.853 94.4117C374.059 93.1908 373.394 92.2175 372.907 91.5601C372.64 91.2259 372.403 90.8687 372.198 90.4929C372.511 90.7854 372.797 91.1055 373.052 91.4491C373.581 92.0809 374.299 93.0286 375.127 94.241C376.098 95.6627 376.995 97.1331 377.816 98.6464C379.828 102.355 381.373 106.298 382.418 110.386C382.848 112.051 383.19 113.738 383.442 115.44C383.656 116.892 383.784 118.078 383.818 118.898C383.862 119.318 383.87 119.74 383.844 120.161Z" fill="#263238"/>
<path d="M395.447 106.228C395.149 106.164 394.861 106.058 394.593 105.912C394.064 105.682 393.313 105.315 392.399 104.837C387.639 102.281 383.335 98.9543 379.661 94.9927C378.961 94.2243 378.423 93.5925 378.064 93.14C377.861 92.9176 377.686 92.671 377.543 92.4058C377.595 92.3545 378.44 93.3108 379.891 94.7707C383.658 98.5744 387.92 101.854 392.561 104.521C394.337 105.562 395.481 106.143 395.447 106.228Z" fill="#263238"/>
<path d="M363.976 119.982C363.513 119.558 363.121 119.062 362.815 118.514C361.987 117.242 361.322 115.871 360.834 114.433C360.326 112.996 360.038 111.491 359.98 109.968C359.922 109.34 359.977 108.706 360.143 108.098C360.237 110.201 360.596 112.283 361.21 114.296C361.98 116.262 362.905 118.163 363.976 119.982Z" fill="#263238"/>
<path d="M371.865 90.9028C371.854 91.1648 371.816 91.425 371.754 91.6798C371.635 92.2433 371.49 92.9604 371.319 93.8483C370.901 95.7864 370.328 98.4246 369.611 101.532L369.321 102.856L369.227 101.498C369.18 100.633 368.815 99.8146 368.203 99.2015C367.531 98.5389 366.703 98.0572 365.795 97.8013L366.06 97.6391C365.737 99.1709 365.602 100.736 365.658 102.301C365.734 105.043 366.25 107.756 367.187 110.335C367.594 111.458 368.094 112.546 368.681 113.588C368.962 114.074 369.27 114.501 369.534 115.005C369.671 115.267 369.716 115.568 369.663 115.859C369.587 116.135 369.418 116.376 369.184 116.542C367.928 117.409 366.613 118.188 365.249 118.872C364.309 119.402 363.823 119.726 363.806 119.726C363.901 119.618 364.01 119.524 364.13 119.444C364.361 119.274 364.702 119.026 365.155 118.736C366.478 117.998 367.758 117.186 368.988 116.303C369.166 116.178 369.29 115.99 369.334 115.778C369.378 115.565 369.34 115.344 369.227 115.159C369.005 114.732 368.664 114.305 368.373 113.784C367.766 112.73 367.246 111.628 366.819 110.488C365.85 107.869 365.313 105.11 365.231 102.318C365.173 100.719 365.314 99.1183 365.65 97.5537L365.71 97.3317L365.914 97.3915C366.901 97.6638 367.799 98.1909 368.519 98.9198C369.188 99.6106 369.585 100.52 369.637 101.481H369.253C369.987 98.3563 370.61 95.7266 371.071 93.7971C371.285 92.9433 371.473 92.2091 371.609 91.6541C371.668 91.3954 371.754 91.1435 371.865 90.9028Z" fill="#263238"/>
<path d="M383.117 154.679C382.966 154.771 382.806 154.848 382.639 154.91C382.17 155.117 381.688 155.294 381.196 155.439C379.389 155.972 377.504 156.197 375.621 156.105C372.818 155.967 370.07 155.264 367.545 154.039C364.473 152.506 361.734 150.382 359.485 147.789C357.24 145.203 355.345 142.333 353.85 139.252C352.633 136.758 351.57 134.192 350.666 131.568C349.88 129.331 349.317 127.495 348.958 126.232C348.787 125.634 348.642 125.147 348.531 124.763C348.471 124.598 348.43 124.426 348.412 124.251C348.501 124.404 348.57 124.567 348.617 124.738C348.745 125.113 348.915 125.591 349.12 126.18C349.556 127.427 350.17 129.246 350.981 131.465C351.929 134.061 353.018 136.604 354.243 139.081C355.743 142.112 357.625 144.938 359.844 147.491C362.055 150.042 364.74 152.142 367.75 153.672C370.22 154.89 372.907 155.61 375.655 155.789C377.512 155.904 379.375 155.731 381.179 155.277C382.426 154.936 383.1 154.628 383.117 154.679Z" fill="#263238"/>
<path d="M391.356 169.04C391.356 169.04 391.356 169.177 391.22 169.407C391.084 169.75 390.927 170.083 390.75 170.406C390.104 171.607 389.316 172.725 388.402 173.736C385.373 177.145 381.17 179.288 376.632 179.735C372.094 180.183 367.553 178.904 363.916 176.152C362.819 175.342 361.827 174.398 360.962 173.343C360.726 173.07 360.504 172.785 360.296 172.49C360.151 172.285 360.083 172.165 360.1 172.157C361.283 173.564 362.623 174.83 364.095 175.93C365.715 177.089 367.507 177.986 369.406 178.585C371.72 179.347 374.167 179.618 376.591 179.38C379.015 179.142 381.363 178.4 383.485 177.202C385.228 176.24 386.81 175.01 388.172 173.557C389.403 172.178 390.471 170.663 391.356 169.04Z" fill="#263238"/>
<path d="M359.784 109.37C359.394 109.578 359.015 109.806 358.649 110.053C358.19 110.394 357.803 110.822 357.51 111.313C357.217 111.804 357.024 112.348 356.941 112.913V113.212L356.685 113.05C355.49 112.264 354.124 111.342 352.647 110.275C350.453 108.687 348.523 107.176 347.157 106.006C346.39 105.433 345.679 104.79 345.031 104.085C345.842 104.602 346.618 105.173 347.354 105.793C348.771 106.851 350.717 108.354 352.903 109.899C354.354 110.95 355.729 111.906 356.899 112.717L356.6 112.853C356.701 112.247 356.927 111.668 357.262 111.153C357.597 110.637 358.034 110.196 358.546 109.857C358.83 109.671 359.137 109.525 359.46 109.421C359.656 109.37 359.776 109.353 359.784 109.37Z" fill="#263238"/>
<path d="M376.365 77.0291C376.363 77.7542 376.291 78.4775 376.152 79.1891C375.938 80.6661 375.691 82.4164 375.417 84.3117C375.144 86.2071 374.922 87.9915 374.717 89.4344C374.668 90.1543 374.542 90.867 374.342 91.5603C374.288 90.8398 374.311 90.1158 374.41 89.4002C374.512 88.0683 374.7 86.2242 374.982 84.2093C375.264 82.1944 375.571 80.3673 375.836 79.0866C375.939 78.3841 376.117 77.6944 376.365 77.0291Z" fill="#FF725E"/>
<path d="M377.679 77.584C377.676 78.3067 377.601 79.0273 377.457 79.7355C377.252 81.2125 377.005 82.9628 376.731 84.8581C376.458 86.7535 376.228 88.5464 376.031 90.0234C375.971 90.7448 375.845 91.4592 375.656 92.1579C375.596 91.435 375.616 90.7078 375.715 89.9893C375.818 88.6574 376.006 86.8218 376.287 84.7984C376.569 82.7749 376.885 80.9564 377.141 79.6757C377.242 78.9606 377.422 78.2591 377.679 77.584Z" fill="#FF725E"/>
<path d="M344.194 106.629C343.416 106.202 342.676 105.708 341.983 105.152C340.651 104.188 338.832 102.839 336.86 101.319C334.888 99.7993 333.069 98.4076 331.789 97.3831C331.068 96.8749 330.393 96.3035 329.774 95.6755C330.55 96.1106 331.289 96.6074 331.985 97.1611C333.317 98.1259 335.136 99.4748 337.108 100.995C339.08 102.514 340.89 103.897 342.171 104.922C342.891 105.435 343.568 106.006 344.194 106.629Z" fill="#FF725E"/>
<path d="M343.793 104.64C343.085 104.115 342.411 103.545 341.778 102.933C340.548 101.874 338.824 100.448 336.817 98.9966C334.811 97.5452 332.899 96.3585 331.507 95.5303C330.728 95.1193 329.975 94.6602 329.253 94.1558C330.092 94.4384 330.898 94.8075 331.661 95.2571C333.54 96.2712 335.349 97.4122 337.073 98.6722C338.802 99.9156 340.444 101.273 341.991 102.736C342.657 103.306 343.261 103.944 343.793 104.64Z" fill="#FF725E"/>
<path d="M386.174 121.417C386.174 121.417 386.302 121.417 386.336 121.664C386.345 121.815 386.31 121.965 386.236 122.097C386.162 122.229 386.051 122.336 385.918 122.407C385.704 122.49 385.474 122.522 385.246 122.501C385.018 122.48 384.798 122.407 384.603 122.287C384.184 122.091 383.664 121.818 383.228 122.006L383.305 121.715C383.526 121.962 383.692 122.253 383.792 122.569C383.859 122.766 383.856 122.981 383.785 123.176C383.713 123.372 383.577 123.537 383.399 123.645C383.295 123.695 383.181 123.722 383.066 123.722C382.951 123.722 382.837 123.695 382.733 123.645C382.557 123.553 382.4 123.429 382.272 123.278C382.098 123.006 381.879 122.766 381.623 122.569C381.41 122.45 381.273 122.484 381.196 122.569C381.145 122.768 381.173 122.979 381.273 123.158C381.415 123.4 381.519 123.662 381.58 123.935C381.624 124.106 381.604 124.287 381.524 124.444C381.443 124.601 381.309 124.724 381.145 124.789C381.001 124.83 380.849 124.838 380.702 124.813C380.554 124.788 380.414 124.73 380.291 124.644C380.092 124.511 379.914 124.35 379.762 124.166C379.497 123.85 379.207 123.611 378.908 123.67L379.028 123.508C379.102 124.206 379.102 124.91 379.028 125.609C378.857 124.928 378.749 124.234 378.703 123.534V123.406H378.84C379.061 123.391 379.283 123.434 379.483 123.53C379.683 123.625 379.856 123.771 379.984 123.952C380.116 124.106 380.272 124.238 380.445 124.345C380.593 124.444 380.774 124.481 380.949 124.447C381.247 124.336 381.102 123.867 380.82 123.389C380.737 123.242 380.686 123.079 380.673 122.911C380.66 122.742 380.684 122.573 380.744 122.415C380.794 122.323 380.864 122.243 380.95 122.182C381.036 122.122 381.135 122.082 381.239 122.065C381.427 122.047 381.617 122.092 381.777 122.193C382.086 122.405 382.348 122.678 382.545 122.996C382.75 123.235 382.981 123.363 383.143 123.278C383.234 123.215 383.302 123.125 383.337 123.02C383.373 122.915 383.373 122.802 383.339 122.697C383.252 122.445 383.115 122.213 382.938 122.014L382.784 121.818L383.015 121.715C383.322 121.595 383.663 121.595 383.971 121.715C384.219 121.809 384.459 121.923 384.688 122.057C384.841 122.166 385.015 122.24 385.199 122.276C385.384 122.311 385.573 122.306 385.755 122.262C385.863 122.215 385.957 122.141 386.028 122.046C386.098 121.952 386.142 121.841 386.157 121.724C386.216 121.51 386.174 121.425 386.174 121.417Z" fill="#FF725E"/>
<path d="M389.102 122.689C389.153 122.808 387.198 123.816 384.833 125.182C382.468 126.548 380.65 127.743 380.564 127.666C381.773 126.536 383.128 125.574 384.594 124.806C385.997 123.905 387.513 123.193 389.102 122.689Z" fill="#FF725E"/>
<path d="M294.912 337.14C294.912 337.14 296.62 342.894 296.765 343.97L301.426 346.975L311.672 343.159L311.364 334.391L294.912 337.14Z" fill="#D9B2A4"/>
<path d="M311.697 341.81L311.842 342.741C311.842 342.741 328.679 346.762 329.293 349.75L297.704 354.284L296.628 343.714C299.129 344.498 301.77 344.733 304.37 344.405C306.97 344.076 309.469 343.191 311.697 341.81Z" fill="#FF8B7B"/>
<g opacity="0.6">
<path opacity="0.6" d="M297.721 354.283L297.465 351.722L327.817 348.307C327.817 348.307 329.311 348.717 329.294 349.733L297.721 354.283Z" fill="white"/>
</g>
<path d="M311.961 342.817C311.961 342.971 311.219 343.15 310.536 343.756C309.852 344.363 309.537 345.071 309.383 345.029C309.229 344.986 309.332 344.064 310.177 343.321C311.022 342.578 311.978 342.672 311.961 342.817Z" fill="#263238"/>
<path d="M315.471 343.714C315.531 343.859 314.899 344.217 314.472 344.943C314.045 345.669 313.985 346.377 313.832 346.394C313.678 346.411 313.456 345.541 314.011 344.687C314.566 343.833 315.445 343.577 315.471 343.714Z" fill="#263238"/>
<path d="M317.921 347.402C317.784 347.454 317.46 346.719 317.733 345.814C318.006 344.909 318.681 344.474 318.766 344.593C318.852 344.713 318.467 345.234 318.254 345.976C318.04 346.719 318.075 347.368 317.921 347.402Z" fill="#263238"/>
<path d="M233.867 337.422C233.867 337.422 231.954 343.133 231.818 344.166L227.071 346.992L216.937 342.886L217.5 334.126L233.867 337.422Z" fill="#D9B2A4"/>
<path d="M216.954 341.596L216.783 342.527C216.783 342.527 199.828 346.045 199.127 349.016L230.546 354.48L231.938 343.953C229.418 344.658 226.775 344.813 224.189 344.406C221.604 344 219.136 343.041 216.954 341.596Z" fill="#FF8B7B"/>
<g opacity="0.6">
<path opacity="0.6" d="M230.546 354.48L230.887 351.919L200.638 347.599C200.638 347.599 199.135 347.966 199.127 348.982L230.546 354.48Z" fill="white"/>
</g>
<path d="M216.655 342.595C216.655 342.749 217.39 342.954 218.056 343.577C218.721 344.2 219.02 344.918 219.165 344.884C219.311 344.849 219.251 343.919 218.423 343.176C217.594 342.433 216.647 342.45 216.655 342.595Z" fill="#263238"/>
<path d="M213.121 343.389C213.061 343.526 213.684 343.91 214.085 344.644C214.487 345.379 214.529 346.096 214.683 346.122C214.837 346.147 215.084 345.268 214.564 344.414C214.043 343.56 213.155 343.244 213.121 343.389Z" fill="#263238"/>
<path d="M210.567 346.992C210.695 347.044 211.045 346.318 210.798 345.404C210.55 344.491 209.893 344.038 209.799 344.158C209.705 344.277 210.081 344.798 210.269 345.549C210.456 346.301 210.414 346.992 210.567 346.992Z" fill="#263238"/>
<path d="M233.347 233.705C232.238 237.937 231.518 242.26 231.195 246.623C230.922 252.505 227.712 275.258 227.712 275.258C227.712 275.258 219.951 291.044 216.741 308.444C214.846 318.342 213.772 328.38 213.531 338.454L236.275 342.202L254.478 276.095L270.802 233.739C270.802 233.739 272.142 268.599 279.903 283.053L291.403 339.778L313.84 336.431C313.84 336.431 304.79 279.809 305.064 267.224C305.337 254.64 315.309 237.658 297.832 196.882L264.936 223.87L233.347 233.705Z" fill="#8BB8CF"/>
<path d="M297.865 275.702C297.827 275.93 297.749 276.15 297.635 276.351C297.364 276.91 297.044 277.445 296.679 277.948C295.465 279.633 293.832 280.973 291.943 281.835C290.054 282.697 287.972 283.053 285.904 282.866C285.283 282.813 284.668 282.701 284.068 282.533C283.641 282.413 283.419 282.319 283.428 282.285C283.437 282.251 284.384 282.481 285.921 282.55C287.928 282.649 289.93 282.266 291.758 281.433C293.587 280.599 295.189 279.34 296.431 277.76C297.379 276.556 297.797 275.668 297.865 275.702Z" fill="#455A64"/>
<path d="M243.472 289.141C243.472 289.141 243.319 289.269 242.986 289.397C242.512 289.57 242.013 289.662 241.509 289.67C239.834 289.651 238.218 289.047 236.941 287.962C235.7 286.889 234.662 285.603 233.876 284.163C233.501 283.604 233.2 282.998 232.979 282.362C233.418 282.87 233.807 283.418 234.141 284.001C234.986 285.352 236.024 286.571 237.223 287.621C238.428 288.63 239.923 289.228 241.492 289.328C242.156 289.32 242.818 289.257 243.472 289.141Z" fill="#455A64"/>
<path d="M294.818 339.308C294.764 339.148 294.729 338.982 294.716 338.813C294.656 338.438 294.588 337.959 294.502 337.37C294.331 336.124 294.058 334.322 293.7 332.103C292.983 327.654 291.804 321.541 290.37 314.814L286.639 297.602C286.169 295.399 285.785 293.606 285.572 292.368C285.469 291.787 285.384 291.309 285.316 290.942C285.276 290.774 285.256 290.602 285.256 290.43C285.324 290.585 285.373 290.749 285.401 290.917C285.495 291.292 285.606 291.77 285.743 292.334C286.041 293.615 286.443 295.382 286.946 297.533C287.945 301.93 289.363 307.992 290.805 314.72C292.248 321.447 293.367 327.586 294.007 332.051C294.331 334.28 294.553 336.098 294.673 337.353C294.724 337.942 294.767 338.42 294.801 338.796C294.827 338.966 294.833 339.138 294.818 339.308Z" fill="#455A64"/>
<path d="M277.743 229.496C277.455 229.777 277.14 230.028 276.804 230.248C276.189 230.709 275.267 231.34 274.114 232.092C271.087 234.028 267.923 235.74 264.646 237.214C261.371 238.702 257.992 239.952 254.537 240.954C253.214 241.33 252.13 241.611 251.378 241.808C250.995 241.922 250.6 241.994 250.2 242.021C250.566 241.861 250.946 241.735 251.336 241.645C252.07 241.432 253.137 241.108 254.452 240.698C257.862 239.613 261.206 238.331 264.467 236.856C267.72 235.366 270.884 233.69 273.944 231.836C275.122 231.118 276.061 230.529 276.71 230.128C277.034 229.886 277.38 229.675 277.743 229.496Z" fill="#455A64"/>
<path d="M284.778 233.27C284.125 233.504 283.445 233.656 282.754 233.722C281.111 233.989 279.456 234.172 277.794 234.269C275.847 234.388 274.08 234.388 272.808 234.337C272.113 234.354 271.419 234.285 270.742 234.132C271.425 234.025 272.117 233.988 272.808 234.021C274.08 234.021 275.83 233.944 277.768 233.825C279.706 233.705 281.448 233.543 282.72 233.415C283.4 233.304 284.089 233.255 284.778 233.27Z" fill="#455A64"/>
<path d="M192.587 256.492L199.537 313.456L209.688 311.236C209.688 311.236 210.448 281.926 210.909 276.129C211.37 270.332 210.909 256.492 210.909 256.492H192.587Z" fill="#D9B2A4"/>
<path d="M199.547 313.183C199.547 313.183 199.034 336.013 199.316 336.235C199.598 336.457 200.545 336.235 200.545 336.235C200.545 336.235 200.691 338.685 201.399 338.796C202.108 338.907 202.765 339.3 203.269 337.644C203.773 335.987 204.123 333.895 204.49 332.026C204.857 330.156 207.051 323.488 207.051 323.488C207.519 324.201 207.812 325.014 207.905 325.861C208.05 327.236 208.494 331.684 211.141 332.128L212.584 331.548C212.584 331.548 210.876 327.953 211.141 326.152C211.405 324.35 211.849 319.894 211.141 317.375C210.432 314.856 209.715 311.271 209.715 311.271L199.547 313.183Z" fill="#D9B2A4"/>
<path d="M205.233 283.634C205.411 284.078 205.518 284.548 205.549 285.025C205.617 285.461 205.711 285.973 205.762 286.562C205.828 287.209 205.776 287.863 205.608 288.492C205.421 289.048 205.436 289.653 205.651 290.199C205.908 290.652 206.125 291.126 206.3 291.617C206.404 291.981 206.367 292.371 206.198 292.709C206.052 292.948 205.899 292.991 205.89 292.974C205.882 292.957 205.967 292.855 206.035 292.641C206.126 292.332 206.111 292.001 205.993 291.702C205.78 291.244 205.54 290.8 205.275 290.37C205.128 290.069 205.049 289.74 205.045 289.405C205.048 289.063 205.091 288.722 205.173 288.389C205.394 287.289 205.417 286.159 205.241 285.051C205.167 284.582 205.165 284.104 205.233 283.634Z" fill="#AC6850"/>
<path d="M206.154 284.454C206.154 284.454 206.29 284.454 206.487 284.539C206.754 284.733 206.939 285.019 207.008 285.342C207.095 285.802 207.069 286.277 206.931 286.725C206.778 287.207 206.74 287.719 206.82 288.219C206.959 288.722 207.144 289.211 207.375 289.679C207.569 290.092 207.698 290.532 207.759 290.985C207.853 291.839 207.494 292.231 207.46 292.189C207.517 291.804 207.517 291.413 207.46 291.028C207.365 290.617 207.216 290.221 207.016 289.849C206.751 289.361 206.544 288.842 206.401 288.304C206.304 287.732 206.354 287.144 206.547 286.597C206.693 286.207 206.748 285.79 206.709 285.376C206.646 285.01 206.448 284.681 206.154 284.454Z" fill="#AC6850"/>
<path d="M200.553 324.231C200.735 324.835 200.835 325.461 200.852 326.092C200.981 327.602 201.024 329.119 200.98 330.634C200.93 332.149 200.796 333.659 200.579 335.159C200.526 335.789 200.389 336.41 200.169 337.003C200.041 337.003 200.434 334.143 200.536 330.625C200.639 327.108 200.425 324.248 200.553 324.231Z" fill="#AC6850"/>
<path d="M190.778 214.769C190.778 214.769 188.37 222.265 188.635 227.353C188.9 232.442 190.778 256.492 190.778 256.492H214.06L211.926 235.609C211.926 235.609 224.229 238.64 232.587 232.194C232.587 232.194 232.801 234.294 236.002 235.609C239.204 236.924 256.075 238.29 263.835 235.609C271.596 232.928 288.996 220.361 293.273 212.327C295.689 207.569 297.636 202.588 299.088 197.454C299.4 196.388 299.304 195.243 298.818 194.243C298.332 193.244 297.49 192.462 296.458 192.05C287.698 188.549 265.449 179.96 253.163 177.843C237.642 175.162 232.673 170.202 232.673 170.202L241.748 163.713C238.994 160.142 235.795 156.937 232.229 154.176C226.338 149.626 224.545 146.791 221.881 147.867C219.217 148.943 204.216 160.443 202.073 167.401L197.258 188.814L190.778 214.769Z" fill="#FF8B7B"/>
<path d="M248.193 202.304C248.231 202.457 248.246 202.615 248.236 202.773C248.236 203.089 248.279 203.542 248.236 204.131C248.205 205.794 248.046 207.453 247.758 209.091C246.805 214.527 244.566 219.656 241.227 224.049C237.35 229.172 232.689 232.929 228.736 234.559C227.212 235.246 225.604 235.731 223.955 236.002C223.509 236.081 223.058 236.132 222.606 236.156C222.45 236.177 222.292 236.177 222.136 236.156C222.136 236.113 222.777 236.045 223.921 235.814C225.533 235.481 227.1 234.96 228.591 234.26C232.416 232.553 237.009 228.856 240.859 223.768C244.157 219.419 246.412 214.372 247.451 209.014C247.763 207.393 247.968 205.753 248.065 204.105C248.151 202.953 248.159 202.304 248.193 202.304Z" fill="#263238"/>
<path d="M283.224 203.26C283.245 203.39 283.245 203.522 283.224 203.652C283.224 203.968 283.224 204.344 283.173 204.805C283.146 205.408 283.086 206.01 282.994 206.607C282.891 207.307 282.806 208.109 282.601 208.98C282.428 209.936 282.202 210.883 281.927 211.815C281.67 212.839 281.278 213.889 280.893 215.008C279.09 219.817 276.373 224.232 272.894 228.011C272.04 228.864 271.314 229.718 270.52 230.376C269.726 231.033 268.992 231.707 268.292 232.254C267.592 232.8 266.926 233.261 266.345 233.671C265.857 234.028 265.347 234.353 264.817 234.644L263.818 235.216C263.588 235.344 263.468 235.404 263.459 235.387C263.451 235.37 263.562 235.285 263.775 235.14L264.723 234.499C265.233 234.181 265.726 233.836 266.2 233.466C266.764 233.048 267.43 232.612 268.095 232.015C268.761 231.417 269.521 230.828 270.264 230.102C271.007 229.377 271.784 228.583 272.595 227.737C275.998 223.966 278.681 219.602 280.509 214.862C280.902 213.761 281.303 212.719 281.568 211.712C281.858 210.795 282.1 209.863 282.294 208.92C282.524 208.066 282.618 207.264 282.746 206.572C282.874 205.881 282.951 205.275 282.994 204.788C283.036 204.301 283.096 203.934 283.139 203.652C283.182 203.371 283.207 203.251 283.224 203.26Z" fill="#263238"/>
<path d="M276.377 206.47C276.497 207.387 276.52 208.314 276.445 209.236C276.307 213.695 275.645 218.122 274.473 222.427C274.275 223.329 273.989 224.21 273.619 225.056C273.756 224.144 273.944 223.241 274.183 222.35C274.567 220.694 275.036 218.388 275.421 215.827C275.805 213.266 276.027 210.918 276.146 209.219C276.17 208.299 276.247 207.381 276.377 206.47Z" fill="#263238"/>
<g opacity="0.3">
<path opacity="0.3" d="M249.568 208.596C249.482 208.22 249.346 207.793 248.987 207.665C248.338 207.426 247.928 208.34 247.792 209.014C245.914 218.406 239.963 226.739 232.595 232.211C235.318 231.849 237.94 230.939 240.302 229.536C242.665 228.134 244.719 226.267 246.34 224.049C247.916 221.836 249.015 219.32 249.571 216.66C250.126 214.001 250.125 211.255 249.568 208.596Z" fill="black"/>
</g>
<path d="M232.621 170.202C232.409 170.446 232.168 170.664 231.904 170.851C231.665 171.047 231.375 171.295 231.05 171.551L229.821 172.404C227.39 174.018 224.637 175.081 221.753 175.521C218.855 175.896 215.91 175.571 213.164 174.573C212.634 174.402 212.173 174.206 211.764 174.035C211.354 173.864 211.012 173.711 210.739 173.566C210.439 173.438 210.153 173.281 209.885 173.096C209.885 173.019 211.157 173.617 213.249 174.274C215.966 175.165 218.848 175.439 221.684 175.077C224.508 174.644 227.214 173.645 229.642 172.14L230.905 171.346C231.272 171.107 231.571 170.885 231.827 170.714C232.071 170.512 232.337 170.34 232.621 170.202Z" fill="#263238"/>
<path d="M233.347 193.868C233.339 192.809 233.265 191.751 233.125 190.701C232.836 189.684 232.494 188.684 232.1 187.704C232.837 188.528 233.341 189.533 233.561 190.617C233.78 191.7 233.706 192.823 233.347 193.868Z" fill="white"/>
<path d="M234.457 193.851C234.45 192.792 234.376 191.734 234.235 190.684C233.95 189.663 233.605 188.659 233.202 187.678C233.942 188.502 234.449 189.509 234.67 190.594C234.89 191.679 234.817 192.804 234.457 193.851Z" fill="white"/>
<path d="M210.756 232.536C210.482 232.396 210.226 232.22 209.997 232.015L208.024 230.487C205.884 228.776 203.599 227.256 201.194 225.945C198.79 224.654 196.156 223.845 193.442 223.563C192.304 223.502 191.164 223.502 190.027 223.563C190.318 223.455 190.622 223.386 190.932 223.358C191.763 223.239 192.604 223.205 193.442 223.255C196.223 223.443 198.93 224.227 201.382 225.552C203.819 226.866 206.109 228.438 208.212 230.239C209.023 230.922 209.664 231.486 210.099 231.878C210.534 232.271 210.782 232.51 210.756 232.536Z" fill="#263238"/>
<g opacity="0.3">
<path opacity="0.3" d="M273.918 223.904C276.138 220.107 277.391 215.823 277.568 211.429C277.745 207.035 276.841 202.664 274.934 198.701C277.496 206.581 275.874 215.153 274.192 223.272" fill="black"/>
</g>
<g opacity="0.3">
<path opacity="0.3" d="M282.763 195.456C283.855 203.065 282.701 210.826 279.443 217.788C276.185 224.749 270.965 230.608 264.424 234.644L263.989 234.952C269.658 231.818 275.241 228.122 278.87 222.734C281.118 219.217 282.714 215.325 283.583 211.243C284.829 206.026 285.265 200.237 282.763 195.456Z" fill="black"/>
</g>
<path d="M190.215 223.588C190.286 224.014 190.323 224.445 190.325 224.877C190.368 225.791 190.419 226.977 190.488 228.395C190.641 231.366 190.898 235.472 191.341 239.989C191.785 244.505 192.315 248.578 192.733 251.523C192.938 252.932 193.109 254.085 193.245 255.007C193.334 255.431 193.38 255.863 193.382 256.296C193.246 255.883 193.144 255.461 193.075 255.032C192.904 254.179 192.673 253.035 192.426 251.566C191.922 248.629 191.333 244.557 190.898 240.032C190.462 235.507 190.257 231.391 190.189 228.412C190.189 226.918 190.146 225.714 190.189 224.886C190.158 224.453 190.166 224.019 190.215 223.588Z" fill="white"/>
<path d="M192.169 223.366C192.247 223.791 192.284 224.223 192.28 224.655C192.322 225.569 192.382 226.747 192.45 228.173C192.596 231.144 192.852 235.242 193.304 239.759C193.757 244.275 194.277 248.348 194.704 251.293C194.909 252.702 195.08 253.854 195.208 254.785C195.29 255.207 195.339 255.636 195.353 256.066C195.204 255.66 195.098 255.239 195.037 254.811C194.867 254 194.645 252.813 194.397 251.344C193.885 248.407 193.304 244.335 192.86 239.801C192.416 235.268 192.22 231.161 192.152 228.181C192.152 226.696 192.109 225.492 192.152 224.655C192.121 224.226 192.127 223.795 192.169 223.366Z" fill="white"/>
<path d="M225.27 149.472C224.967 149.704 224.637 149.899 224.288 150.052C223.648 150.385 222.725 150.906 221.616 151.581C215.805 155.084 210.81 159.788 206.965 165.378C206.231 166.445 205.659 167.333 205.257 167.939C205.077 168.271 204.865 168.586 204.625 168.878C204.746 168.52 204.906 168.176 205.104 167.854C205.437 167.196 205.957 166.283 206.675 165.181C208.544 162.325 210.742 159.697 213.223 157.352C215.711 155.013 218.468 152.978 221.436 151.29C222.572 150.65 223.519 150.172 224.185 149.882C224.533 149.711 224.896 149.574 225.27 149.472Z" fill="white"/>
<path d="M227.489 150.881C227.189 151.116 226.862 151.317 226.516 151.478C225.867 151.811 224.954 152.332 223.844 152.998C218.03 156.504 213.033 161.211 209.185 166.803C208.45 167.871 207.878 168.75 207.477 169.365C207.299 169.701 207.087 170.019 206.845 170.312C206.97 169.952 207.133 169.605 207.332 169.279C207.656 168.631 208.186 167.717 208.903 166.616C210.769 163.757 212.967 161.129 215.451 158.787C217.935 156.446 220.689 154.411 223.656 152.725C224.548 152.204 225.469 151.734 226.414 151.316C226.758 151.138 227.118 150.992 227.489 150.881Z" fill="white"/>
<path d="M192.109 179.055C191.981 179.055 192.109 178.031 191.768 176.861C191.426 175.692 190.914 174.855 190.999 174.778C191.58 175.304 191.994 175.988 192.192 176.747C192.389 177.505 192.36 178.305 192.109 179.047V179.055Z" fill="white"/>
<path d="M264.014 179.721C264.253 180.063 268.445 186.039 269.862 188.122C271.279 190.206 271.57 192.024 272.526 192.459C273.482 192.895 273.986 192.502 274.233 190.897C274.515 188.857 273.012 185.868 273.012 185.868C273.012 185.868 281.55 193.245 282.643 193.493C284.461 193.902 284.18 191.785 284.18 191.785C284.18 191.785 286.374 193.706 287.296 193.228C288.218 192.75 288.15 192.161 288.15 192.161L287.578 190.163C288.432 190.257 289.004 189.881 289.089 188.805L282.079 184.033L275.002 179.764L270.613 172.806L264.014 179.721Z" fill="#D9B2A4"/>
<path d="M224.271 148.063C224.271 148.063 245.521 137.818 247.707 138.8C260.001 144.281 269.803 170.031 275.028 179.687L266.2 182.761L244.565 158.309L239.758 161.536L224.271 148.063Z" fill="#D9B2A4"/>
<path d="M275.447 179.653C275.447 179.781 273.739 179.568 271.647 179.747C269.555 179.926 267.925 180.413 267.891 180.285C270.257 179.194 272.932 178.97 275.447 179.653Z" fill="#AC6850"/>
<path d="M277.878 185.433C279.203 186.225 280.41 187.2 281.464 188.327C282.613 189.357 283.611 190.544 284.427 191.853C283.28 190.839 282.186 189.768 281.148 188.643C280.003 187.631 278.911 186.56 277.878 185.433Z" fill="#AC6850"/>
<path d="M282.908 186.091C284.686 187.242 286.296 188.635 287.689 190.231C285.91 189.08 284.301 187.687 282.908 186.091Z" fill="#AC6850"/>
<path d="M264.629 171.551C264.586 171.551 264.629 171.422 264.569 171.26C264.435 171.033 264.251 170.841 264.031 170.697C263.863 170.57 263.711 170.424 263.579 170.261C263.434 170.062 263.324 169.84 263.254 169.604C263.173 169.133 262.97 168.691 262.665 168.323C262.591 168.229 262.49 168.16 262.375 168.126C262.26 168.093 262.138 168.096 262.025 168.135L261.726 168.272V167.939C261.64 166.967 261.349 166.024 260.872 165.173C260.872 165.173 261.171 165.344 261.47 165.813C261.869 166.45 262.092 167.18 262.119 167.931L261.811 167.743C262.003 167.665 262.213 167.647 262.415 167.693C262.617 167.739 262.799 167.846 262.938 167.999C263.159 168.208 263.323 168.469 263.416 168.759C263.502 169.023 263.553 169.271 263.613 169.484C263.704 169.866 263.913 170.21 264.21 170.466C264.448 170.664 264.621 170.929 264.706 171.226C264.765 171.474 264.637 171.559 264.629 171.551Z" fill="#AC6850"/>
<path d="M267.19 170.586C267.19 170.586 267.104 170.688 266.882 170.723C266.577 170.734 266.277 170.644 266.029 170.466C265.667 170.2 265.375 169.852 265.175 169.45C264.96 168.995 264.703 168.56 264.406 168.153C264.108 167.734 263.621 167.658 263.16 167.299C262.956 167.122 262.818 166.881 262.767 166.616C262.716 166.385 262.707 166.189 262.673 166.018C262.653 165.763 262.537 165.526 262.349 165.352C262.212 165.241 262.093 165.241 262.093 165.207C262.093 165.173 262.212 165.105 262.434 165.207C262.576 165.286 262.7 165.395 262.796 165.526C262.891 165.657 262.957 165.808 262.989 165.967C263.083 166.326 263.109 166.77 263.425 166.992C263.621 167.122 263.83 167.233 264.048 167.325C264.317 167.456 264.556 167.642 264.748 167.871C265.066 168.304 265.33 168.774 265.533 169.271C265.7 169.633 265.942 169.956 266.242 170.219C266.513 170.435 266.844 170.563 267.19 170.586Z" fill="#AC6850"/>
<path d="M250.806 153.263C250.858 153.263 250.764 153.766 250.354 154.432C249.797 155.287 249.06 156.01 248.194 156.55C247.341 157.077 246.43 157.504 245.479 157.822C245.097 157.989 244.69 158.09 244.275 158.121C244.275 158.061 244.676 157.847 245.359 157.532C246.241 157.133 247.096 156.68 247.921 156.174C248.737 155.658 249.461 155.008 250.063 154.253C250.294 153.91 250.542 153.58 250.806 153.263Z" fill="#AC6850"/>
<path d="M199.452 177.732C199.383 174.838 198.242 172.072 196.25 169.971C194.192 167.982 188.831 166.667 186.414 169.075L188.421 169.647C185.35 184.705 180.7 199.397 174.547 213.48C173.665 215.216 173.06 217.08 172.754 219.003C172.61 219.968 172.702 220.954 173.022 221.876C173.341 222.797 173.879 223.628 174.59 224.297C176.084 225.535 178.654 225.475 179.712 223.87C179.533 225.5 180.002 227.134 181.019 228.421C181.54 229.045 182.241 229.493 183.027 229.702C183.813 229.912 184.644 229.873 185.407 229.59C187.465 228.677 188.942 226.132 189.266 223.904C191.127 211.055 195.242 198.837 198.316 186.227C199.109 183.467 199.492 180.604 199.452 177.732Z" fill="#818181"/>
<path d="M191.588 169.766C190.738 169.219 189.765 168.89 188.757 168.808C187.749 168.726 186.736 168.894 185.808 169.297L185.305 169.399C186.641 169.95 187.749 170.941 188.447 172.208C189.138 173.464 189.932 174.66 190.82 175.785C191.571 176.639 192.886 177.245 193.731 176.528C193.938 176.311 194.097 176.053 194.197 175.77C194.297 175.488 194.336 175.187 194.312 174.889C194.315 173.877 194.068 172.88 193.593 171.986C193.117 171.092 192.429 170.33 191.588 169.766Z" fill="#FF8B7B"/>
<path d="M197.796 182.513C197.727 182.513 197.881 181.753 197.949 180.558C198.029 178.996 197.859 177.431 197.446 175.922C197.229 175.097 196.917 174.301 196.515 173.549C196.191 172.941 195.732 172.416 195.175 172.012C194.67 171.629 194.037 171.455 193.407 171.525C193.407 171.525 193.561 171.397 193.919 171.346C194.43 171.314 194.937 171.458 195.354 171.756C195.98 172.152 196.502 172.694 196.874 173.335C197.311 174.111 197.647 174.941 197.872 175.803C198.307 177.357 198.44 178.98 198.265 180.584C198.228 181.25 198.068 181.904 197.796 182.513Z" fill="white"/>
<path d="M184.443 226.559C184.344 226.334 184.278 226.095 184.247 225.85C184.144 225.389 184.042 224.715 183.948 223.878C183.507 219.467 184.091 215.014 185.655 210.867C185.963 210.081 186.236 209.449 186.449 209.031C186.663 208.613 186.791 208.382 186.825 208.399C186.859 208.416 186.475 209.381 185.971 210.961C184.576 215.105 183.996 219.48 184.264 223.844C184.366 225.517 184.52 226.551 184.443 226.559Z" fill="white"/>
<path d="M169.928 161.587C167.709 161.715 165.438 163.039 164.806 165.156C163.142 164.068 161.115 163.682 159.168 164.084C157.221 164.485 155.513 165.641 154.415 167.299C153.314 169.117 152.981 171.474 151.325 172.806C150.292 173.66 148.926 173.907 147.696 174.394C142.505 176.443 139.799 182.872 141.25 188.259C142.702 193.646 147.688 197.651 153.152 198.795C155.713 199.315 158.394 199.298 160.725 200.434C162.91 201.492 164.533 203.448 166.616 204.703C168.699 205.958 171.79 206.265 173.241 204.31L189.591 185.629C190.938 184.186 191.802 182.359 192.062 180.402C192.322 178.444 191.966 176.455 191.042 174.71C189.727 172.336 187.439 170.671 185.228 169.083C182.389 166.944 179.395 165.018 176.272 163.32C174.347 162.194 172.159 161.596 169.928 161.587Z" fill="#818181"/>
<path d="M211.208 200.997C212.435 198.519 212.642 195.66 211.785 193.031C210.928 190.402 209.075 188.214 206.623 186.936L175.956 170.91C167.862 166.343 158.445 167.256 154.108 175.478L153.749 176.263C152.01 180.066 151.767 184.384 153.069 188.357C154.371 192.33 157.123 195.667 160.776 197.702C167.82 201.62 175.649 205.855 179.559 207.597C187.729 211.2 192.69 203.644 192.69 203.644C192.69 203.644 194.551 204.557 196.882 205.744C198.132 206.387 199.497 206.774 200.898 206.883C202.299 206.992 203.708 206.821 205.042 206.379C206.376 205.937 207.608 205.233 208.667 204.309C209.726 203.385 210.59 202.259 211.208 200.997Z" fill="#D9B2A4"/>
<path d="M192.844 203.695C194.55 199.943 195.143 195.779 194.551 191.7C194.551 191.7 199.29 196.967 194.867 204.737L192.844 203.695Z" fill="#AC6850"/>
<path d="M182.59 191.777C182.223 191.891 181.898 192.113 181.659 192.414C181.419 192.714 181.275 193.08 181.245 193.464C181.216 193.848 181.302 194.231 181.493 194.565C181.685 194.899 181.972 195.168 182.317 195.337C182.663 195.502 183.05 195.561 183.429 195.508C183.809 195.455 184.164 195.291 184.452 195.038C184.837 194.672 185.089 194.189 185.169 193.663C185.254 193.271 185.212 192.861 185.049 192.494C184.905 192.244 184.701 192.035 184.455 191.886C184.208 191.736 183.928 191.652 183.641 191.64C183.166 191.601 182.69 191.696 182.266 191.913" fill="#AC6850"/>
<path d="M167.939 196.652C168.089 196.726 168.252 196.77 168.42 196.781C168.587 196.792 168.755 196.77 168.913 196.716C169.072 196.662 169.218 196.578 169.344 196.467C169.47 196.356 169.573 196.222 169.646 196.071C169.731 195.927 169.785 195.767 169.805 195.602C169.825 195.436 169.811 195.268 169.764 195.108C169.717 194.948 169.637 194.8 169.531 194.672C169.424 194.543 169.292 194.439 169.143 194.364C168.839 194.216 168.489 194.194 168.169 194.302C167.85 194.411 167.586 194.642 167.435 194.944C167.352 195.088 167.299 195.248 167.28 195.413C167.26 195.579 167.274 195.746 167.321 195.906C167.368 196.065 167.447 196.214 167.554 196.342C167.66 196.47 167.791 196.576 167.939 196.652Z" fill="#263238"/>
<path d="M165.566 197.813C165.788 197.736 165.566 196.558 166.104 195.311C166.642 194.065 167.718 193.433 167.624 193.228C167.53 193.023 167.248 193.16 166.77 193.425C166.147 193.791 165.655 194.344 165.361 195.004C165.067 195.654 164.983 196.379 165.122 197.079C165.25 197.582 165.464 197.847 165.566 197.813Z" fill="#263238"/>
<path d="M174.001 184.349C174.151 184.423 174.314 184.467 174.482 184.478C174.649 184.489 174.817 184.467 174.975 184.413C175.134 184.359 175.281 184.275 175.406 184.164C175.532 184.053 175.635 183.919 175.709 183.768C175.793 183.624 175.847 183.464 175.867 183.299C175.887 183.133 175.873 182.965 175.826 182.805C175.779 182.645 175.699 182.497 175.593 182.369C175.486 182.24 175.354 182.136 175.205 182.061C175.055 181.986 174.891 181.942 174.724 181.931C174.557 181.92 174.389 181.942 174.23 181.996C174.072 182.05 173.925 182.135 173.799 182.245C173.674 182.356 173.571 182.491 173.497 182.641C173.412 182.785 173.357 182.944 173.336 183.11C173.315 183.276 173.328 183.445 173.376 183.605C173.423 183.765 173.503 183.914 173.611 184.042C173.718 184.17 173.851 184.275 174.001 184.349Z" fill="#263238"/>
<path d="M171.337 185.937C171.551 185.869 171.337 184.69 171.875 183.444C172.413 182.197 173.48 181.566 173.395 181.361C173.31 181.156 173.019 181.284 172.541 181.557C171.921 181.925 171.432 182.477 171.141 183.137C170.84 183.784 170.756 184.512 170.902 185.211C171.022 185.723 171.235 185.98 171.337 185.937Z" fill="#263238"/>
<path d="M178.705 194.397C178.197 194.96 177.764 195.586 177.415 196.259C177.236 196.557 177.04 196.831 176.801 196.788C176.46 196.662 176.163 196.44 175.947 196.148C175.315 195.49 174.649 194.816 173.949 194.099C171.089 191.213 168.681 188.976 168.57 189.087C168.459 189.198 170.679 191.648 173.539 194.517L175.563 196.532C175.854 196.911 176.273 197.172 176.741 197.266C176.875 197.274 177.009 197.251 177.132 197.197C177.255 197.144 177.364 197.062 177.45 196.959C177.577 196.802 177.683 196.63 177.766 196.447C178.166 195.807 178.482 195.118 178.705 194.397Z" fill="#263238"/>
<path d="M181.208 191.119C181.105 191.316 182.463 191.93 182.915 193.527C183.368 195.123 182.548 196.498 182.727 196.6C182.907 196.703 183.137 196.396 183.436 195.798C183.814 194.998 183.896 194.091 183.667 193.237C183.457 192.425 182.935 191.728 182.215 191.298C181.652 191.025 181.267 191.017 181.208 191.119Z" fill="#263238"/>
<path d="M166.446 183.743C166.838 183.743 167.248 182.462 168.085 181.07C168.922 179.679 169.869 178.688 169.656 178.355C169.545 178.202 169.135 178.261 168.589 178.594C167.884 179.036 167.298 179.643 166.881 180.362C166.449 181.071 166.192 181.873 166.13 182.701C166.113 183.333 166.258 183.726 166.446 183.743Z" fill="#818181"/>
<path d="M162.252 195.712C162.637 195.618 162.739 194.628 163.192 193.586C163.644 192.545 164.25 191.759 164.045 191.426C163.943 191.273 163.601 191.281 163.192 191.537C162.626 191.896 162.19 192.426 161.945 193.049C161.679 193.661 161.611 194.342 161.749 194.995C161.834 195.49 162.073 195.747 162.252 195.712Z" fill="#818181"/>
<path d="M181.77 174.377C181.77 174.214 182.624 168.05 188.131 170.757C193.637 173.463 189.753 178.398 189.599 178.33C189.445 178.261 181.77 174.377 181.77 174.377Z" fill="#D9B2A4"/>
<path d="M188.352 175.632C188.352 175.632 188.463 175.572 188.617 175.444C188.826 175.263 188.957 175.01 188.984 174.735C188.933 174.272 188.76 173.83 188.483 173.455C188.205 173.08 187.833 172.785 187.405 172.601C186.945 172.352 186.433 172.211 185.911 172.191C185.714 172.159 185.513 172.175 185.325 172.238C185.136 172.3 184.965 172.407 184.826 172.55C184.745 172.646 184.7 172.769 184.7 172.895C184.7 173.022 184.745 173.144 184.826 173.241C184.937 173.386 185.065 173.403 185.065 173.438C185.065 173.472 184.912 173.514 184.707 173.361C184.587 173.262 184.503 173.127 184.468 172.976C184.435 172.768 184.481 172.555 184.596 172.379C184.75 172.175 184.955 172.014 185.19 171.912C185.425 171.811 185.682 171.771 185.936 171.798C186.532 171.799 187.118 171.946 187.644 172.225C188.737 172.806 189.488 173.881 189.351 174.786C189.32 174.954 189.252 175.112 189.151 175.25C189.051 175.387 188.921 175.5 188.771 175.58C188.489 175.683 188.352 175.657 188.352 175.632Z" fill="#AC6850"/>
<path d="M166.001 199.827C166.095 199.887 166.351 199.631 166.659 199.324C166.966 199.016 167.213 198.743 167.154 198.649C167.094 198.555 166.718 198.701 166.385 199.051C166.052 199.401 165.899 199.776 166.001 199.827Z" fill="#AC6850"/>
<path d="M166.642 200.715C166.744 200.715 166.958 200.365 167.188 199.862C167.419 199.358 167.59 199.008 167.496 198.923C167.402 198.837 167.086 199.187 166.838 199.691C166.591 200.195 166.54 200.69 166.642 200.715Z" fill="#AC6850"/>
<path d="M175.41 181.36C175.52 181.36 175.794 180.874 176.118 180.216C176.443 179.559 176.673 179.004 176.579 178.953C176.485 178.901 176.093 179.362 175.768 180.045C175.444 180.728 175.29 181.309 175.41 181.36Z" fill="#AC6850"/>
<path d="M176.562 181.813C176.665 181.813 176.878 181.369 177.151 180.814C177.424 180.259 177.663 179.789 177.578 179.73C177.493 179.67 177.091 180.037 176.801 180.643C176.511 181.249 176.46 181.787 176.562 181.813Z" fill="#AC6850"/>
<path d="M175.896 187.755C175.896 187.798 176.22 187.755 176.63 187.439C177.181 187.053 177.606 186.512 177.851 185.886C178.084 185.266 178.126 184.591 177.971 183.947C177.851 183.461 177.672 183.205 177.629 183.222C177.772 184.076 177.722 184.951 177.484 185.783C177.108 186.551 176.566 187.224 175.896 187.755Z" fill="#AC6850"/>
<path d="M175.358 188.19C175.427 188.267 176.016 187.832 176.391 187.038C176.767 186.244 176.759 185.518 176.656 185.518C176.554 185.518 176.4 186.15 176.041 186.867C175.683 187.584 175.29 188.114 175.358 188.19Z" fill="#AC6850"/>
<path d="M168.81 199.742C168.87 199.828 169.758 199.221 170.424 198.103C170.888 197.469 171.136 196.703 171.132 195.917C171.021 195.917 170.731 196.856 170.091 197.907C169.45 198.957 168.733 199.657 168.81 199.742Z" fill="#AC6850"/>
<path d="M169.519 199.349C169.892 199.277 170.245 199.126 170.556 198.907C170.866 198.687 171.127 198.405 171.32 198.077C171.568 197.791 171.754 197.457 171.865 197.095C171.977 196.734 172.012 196.353 171.969 195.977C171.683 196.618 171.36 197.242 171.004 197.847C170.33 198.795 169.468 199.29 169.519 199.349Z" fill="#AC6850"/>
<path d="M160.981 192.041C161.377 191.685 161.717 191.271 161.988 190.812C162.714 189.759 163.334 188.638 163.841 187.465C164.351 186.292 164.751 185.075 165.036 183.828C165.186 183.318 165.256 182.788 165.241 182.257C165.122 182.257 164.678 184.605 163.482 187.311C162.287 190.018 160.878 191.973 160.981 192.041Z" fill="#AC6850"/>
<path d="M159.615 192.408C160.659 191.108 161.521 189.672 162.176 188.139C162.95 186.668 163.524 185.101 163.884 183.478C163.773 183.478 163.03 185.518 161.818 187.969C160.605 190.419 159.521 192.348 159.615 192.408Z" fill="#AC6850"/>
<path d="M166.633 188.08C166.633 187.969 166.436 187.824 166.163 187.678C165.89 187.533 165.642 187.439 165.566 187.516C165.489 187.593 165.66 187.858 165.984 188.029C166.308 188.199 166.607 188.191 166.633 188.08Z" fill="#AC6850"/>
<path d="M166.027 189.898C166.138 189.898 166.206 189.463 165.856 189.096C165.506 188.728 165.062 188.754 165.062 188.856C165.062 188.959 165.335 189.096 165.574 189.36C165.813 189.625 165.899 189.898 166.027 189.898Z" fill="#AC6850"/>
<path d="M180.941 190.752C181.044 190.794 181.291 190.444 181.752 190.239C182.213 190.035 182.606 190.052 182.657 189.941C182.709 189.83 182.179 189.599 181.582 189.889C180.984 190.18 180.839 190.752 180.941 190.752Z" fill="#AC6850"/>
<path d="M181.539 189.275C181.642 189.275 181.796 189.113 182.06 189.053C182.325 188.993 182.547 189.053 182.624 188.968C182.701 188.882 182.624 188.84 182.513 188.754C182.432 188.701 182.34 188.667 182.244 188.654C182.148 188.64 182.05 188.648 181.958 188.677C181.866 188.702 181.78 188.745 181.705 188.804C181.631 188.862 181.568 188.936 181.522 189.019C181.463 189.164 181.488 189.258 181.539 189.275Z" fill="#AC6850"/>
<path d="M205.565 194.483C205.565 194.483 205.634 194.312 205.565 194.013C205.441 193.598 205.175 193.239 204.814 192.997C204.299 192.642 203.719 192.392 203.107 192.263C202.414 192.124 201.769 191.806 201.237 191.341C200.998 191.085 200.827 190.726 200.545 190.428C200.259 190.152 199.89 189.978 199.495 189.932C199.206 189.892 198.933 189.771 198.71 189.582C198.531 189.38 198.374 189.159 198.24 188.925C198.14 188.729 197.996 188.559 197.82 188.427C197.644 188.296 197.44 188.206 197.224 188.165C196.891 188.165 196.772 188.327 196.789 188.327C196.806 188.327 196.942 188.25 197.199 188.327C197.379 188.387 197.544 188.485 197.683 188.614C197.821 188.744 197.93 188.903 198.001 189.079C198.13 189.342 198.29 189.589 198.479 189.813C198.737 190.061 199.065 190.225 199.418 190.282C199.74 190.328 200.039 190.474 200.272 190.701C200.503 190.94 200.665 191.29 200.964 191.614C201.536 192.142 202.252 192.49 203.021 192.613C203.6 192.722 204.156 192.933 204.66 193.236C204.997 193.435 205.262 193.733 205.42 194.09C205.523 194.321 205.531 194.483 205.565 194.483Z" fill="#AC6850"/>
<path d="M204.54 198.291C204.54 198.291 204.651 198.129 204.6 197.813C204.493 197.378 204.262 196.983 203.934 196.677C202.941 195.663 201.842 194.759 200.655 193.979C200.307 193.764 199.945 193.573 199.571 193.407C199.232 193.281 198.901 193.132 198.581 192.963C197.983 192.639 198.06 191.956 197.898 191.401C197.837 191.145 197.693 190.917 197.488 190.752C197.396 190.698 197.293 190.665 197.187 190.655C197.081 190.644 196.974 190.657 196.873 190.692C196.531 190.838 196.566 191.111 196.591 191.085C196.617 191.06 196.651 190.897 196.924 190.838C196.999 190.823 197.077 190.824 197.152 190.84C197.226 190.856 197.297 190.887 197.36 190.932C197.521 191.077 197.629 191.272 197.667 191.486C197.727 191.726 197.727 192.024 197.795 192.34C197.831 192.527 197.905 192.704 198.012 192.862C198.119 193.019 198.258 193.152 198.418 193.254C198.749 193.446 199.094 193.612 199.451 193.749C199.808 193.911 200.153 194.096 200.484 194.304C201.644 195.072 202.743 195.928 203.771 196.865C204.09 197.121 204.335 197.457 204.48 197.839C204.54 198.112 204.506 198.282 204.54 198.291Z" fill="#AC6850"/>
<path d="M153.161 197.369C154.645 196.922 156.015 196.157 157.173 195.126C158.331 194.095 159.249 192.823 159.864 191.4C160.479 189.976 160.775 188.436 160.732 186.886C160.689 185.336 160.308 183.815 159.615 182.428C160.77 182.346 161.886 181.977 162.862 181.355C163.838 180.732 164.642 179.875 165.202 178.862C165.762 177.848 166.06 176.711 166.068 175.554C166.077 174.396 165.795 173.255 165.25 172.234C168.563 175.148 172.792 176.809 177.203 176.929C178.119 177.002 179.038 176.852 179.884 176.494C180.738 176.101 181.899 174.675 181.882 173.762C181.865 172.848 180.78 172.789 180.174 172.174C176.982 168.644 172.519 166.526 167.766 166.287C163.013 166.047 158.36 167.706 154.83 170.897C151.3 174.089 149.182 178.552 148.943 183.305C148.703 188.058 150.362 192.712 153.553 196.242" fill="#818181"/>
<path d="M174.113 162.244C174.036 162.244 174.113 163.098 174.036 164.379C173.871 166.079 173.356 167.727 172.525 169.22C171.697 170.711 170.527 171.984 169.11 172.934C168.503 173.287 167.828 173.506 167.129 173.574C167.491 173.661 167.868 173.672 168.235 173.608C168.602 173.543 168.952 173.404 169.263 173.198C170.789 172.288 172.042 170.985 172.892 169.425C173.763 167.886 174.257 166.162 174.335 164.396C174.354 163.865 174.325 163.334 174.249 162.808C174.239 162.613 174.193 162.422 174.113 162.244Z" fill="#FAFAFA"/>
<path d="M176.519 164.183C175.998 168.621 173.749 172.676 170.261 175.469C170.865 175.198 171.417 174.823 171.891 174.36C174.315 172.238 175.922 169.335 176.434 166.155C176.569 165.506 176.598 164.84 176.519 164.183Z" fill="#FAFAFA"/>
<path d="M149.473 196.379C149.473 196.379 148.909 196.148 148.013 195.567C146.748 194.723 145.729 193.56 145.059 192.195C144.561 191.198 144.278 190.108 144.228 188.994C144.178 187.881 144.362 186.77 144.768 185.732C145.805 183.175 147.637 181.02 149.993 179.585C150.602 179.197 151.238 178.855 151.897 178.56C152.538 178.262 153.212 178.082 153.878 177.758C154.226 177.599 154.54 177.373 154.8 177.092C155.047 176.795 155.193 176.427 155.218 176.042C155.19 175.36 155.04 174.689 154.774 174.061C154.458 173.001 154.473 171.87 154.82 170.819C155.167 169.769 155.827 168.85 156.713 168.187C157.331 167.766 158.027 167.474 158.76 167.327C159.494 167.18 160.249 167.182 160.981 167.333C161.521 167.46 162.048 167.64 162.552 167.871C162.446 167.771 162.325 167.688 162.194 167.624C161.82 167.43 161.424 167.281 161.016 167.18C160.252 166.992 159.459 166.966 158.685 167.104C157.911 167.243 157.175 167.542 156.525 167.982C155.624 168.618 154.937 169.511 154.552 170.543C154.079 171.721 154.019 173.024 154.382 174.24C154.626 174.823 154.765 175.445 154.792 176.076C154.755 176.383 154.633 176.674 154.44 176.915C154.247 177.156 153.99 177.339 153.699 177.442C153.101 177.732 152.401 177.92 151.735 178.227C151.054 178.525 150.397 178.876 149.771 179.278C147.339 180.761 145.457 182.997 144.41 185.647C143.975 186.813 143.8 188.06 143.897 189.301C143.986 190.379 144.294 191.428 144.802 192.383C145.528 193.764 146.625 194.914 147.97 195.704C148.324 195.928 148.702 196.111 149.097 196.25C149.219 196.302 149.344 196.345 149.473 196.379Z" fill="#FAFAFA"/>
<path d="M174.111 162.236C174.628 162.632 175.18 162.98 175.759 163.278C176.784 163.901 178.184 164.798 179.652 165.882C180.915 166.798 182.121 167.791 183.264 168.853C183.707 169.326 184.175 169.776 184.664 170.202C184.358 169.619 183.957 169.091 183.477 168.64C182.382 167.5 181.188 166.46 179.908 165.532C178.64 164.599 177.304 163.76 175.913 163.022C175.349 162.682 174.744 162.418 174.111 162.236Z" fill="#FAFAFA"/>
<path d="M180.933 330.82H7.72569C5.67671 330.82 3.71164 330.006 2.26279 328.557C0.813943 327.108 0 325.143 0 323.094C0 321.045 0.813943 319.08 2.26279 317.631C3.71164 316.183 5.67671 315.369 7.72569 315.369H180.933C182.982 315.369 184.947 316.183 186.396 317.631C187.845 319.08 188.659 321.045 188.659 323.094C188.659 325.143 187.845 327.108 186.396 328.557C184.947 330.006 182.982 330.82 180.933 330.82Z" fill="#F8E8D4"/>
<path d="M25.7835 329.538L13.6152 379.38H17.3293L36.2999 330.82L25.7835 329.538Z" fill="#F8E8D4"/>
<path d="M162.691 329.538L174.859 379.38H171.145L152.175 330.82L162.691 329.538Z" fill="#F8E8D4"/>
<path d="M485.66 348.405C485.66 348.405 481.687 321.323 482.044 305.565C482.402 289.807 482.044 272.07 482.044 272.07H483.856C483.856 272.07 482.624 303.356 483.967 322.221C485.31 341.086 488.807 348.405 488.807 348.405H485.628" fill="#263238"/>
<path d="M497.39 241.611C497.1 240.664 496.522 239.83 495.737 239.227C494.585 238.496 493.075 238.798 491.764 239.227C486.273 241.166 481.433 251.393 479.192 256.773L486.479 281.312C499.655 269.106 501.928 253.109 497.39 241.611Z" fill="#FFE496"/>
<path d="M495.316 240.18C495.291 240.293 495.253 240.402 495.205 240.506L494.855 241.396C494.53 242.191 494.061 243.295 493.552 244.686C492.479 247.475 491.113 251.369 489.889 255.756C488.665 260.142 487.839 264.195 487.322 267.135C487.06 268.605 486.861 269.797 486.742 270.624C486.678 271.005 486.623 271.323 486.583 271.569C486.569 271.683 486.545 271.794 486.512 271.903C486.497 271.79 486.497 271.675 486.512 271.562L486.607 270.608C486.694 269.813 486.861 268.574 487.092 267.096C488.33 259.39 490.425 251.847 493.338 244.607C493.902 243.224 494.379 242.111 494.728 241.349L495.142 240.482C495.191 240.377 495.249 240.276 495.316 240.18Z" fill="#263238"/>
<path d="M483.277 287.216C476.451 283.449 472.422 276.353 472.049 268.565C471.786 263.114 473.463 257.774 475.354 252.672C475.477 252.205 475.758 251.795 476.149 251.512C476.459 251.403 476.791 251.372 477.116 251.424C477.441 251.475 477.747 251.606 478.009 251.806C482.967 254.627 485.955 260.015 487.545 265.498C488.691 269.131 489.073 272.962 488.665 276.75C488.042 280.728 486.153 284.398 483.277 287.216Z" fill="#FFE496"/>
<path d="M483.278 287.216C483.259 287.108 483.259 286.998 483.278 286.89C483.278 286.644 483.278 286.334 483.278 285.945C483.278 285.15 483.238 283.95 483.174 282.488C482.97 278.678 482.54 274.883 481.887 271.124C481.092 266.73 480.21 262.788 479.503 259.943C479.169 258.553 478.899 257.416 478.709 256.574L478.494 255.66C478.462 255.555 478.446 255.445 478.446 255.334C478.494 255.434 478.531 255.538 478.558 255.644C478.621 255.883 478.709 256.185 478.82 256.55C479.042 257.345 479.352 258.481 479.718 259.896C480.449 262.733 481.402 266.666 482.165 271.069C482.817 274.831 483.21 278.633 483.341 282.448C483.381 283.91 483.381 285.102 483.341 285.921C483.341 286.302 483.341 286.612 483.341 286.859C483.331 286.979 483.309 287.099 483.278 287.216Z" fill="#263238"/>
<g opacity="0.3">
<path opacity="0.3" d="M483.276 287.216C476.45 283.449 472.421 276.353 472.048 268.565C471.785 263.114 473.462 257.774 475.353 252.672C475.476 252.205 475.757 251.795 476.148 251.512C476.458 251.403 476.79 251.372 477.115 251.424C477.44 251.475 477.746 251.606 478.008 251.806C482.966 254.627 485.954 260.015 487.544 265.498C488.69 269.131 489.072 272.962 488.664 276.75C488.041 280.728 486.152 284.398 483.276 287.216Z" fill="black"/>
</g>
<path d="M490.978 328.634C497.692 330.104 503.223 334.848 509.708 337.153C513.991 338.67 518.846 339.211 522.263 342.215C521.469 340.141 519.498 338.758 517.607 337.574C512.27 334.241 506.573 331.522 500.625 329.468C497.581 328.419 494.267 327.537 491.16 328.403" fill="#FFE496"/>
<path d="M481.258 334.617C472.85 334.482 463.99 327.314 455.614 326.893C464.356 324.056 476.927 326.369 481.258 334.617Z" fill="#FFE496"/>
<path d="M484.549 314.433C488.887 313.011 493.512 312.696 498.002 313.519C502.469 314.344 506.86 315.538 511.13 317.087C510.701 314.171 508.333 311.97 506.116 310.031C504.489 308.516 502.723 307.159 500.839 305.978C498.934 304.788 496.728 304.168 494.482 304.19C493.143 304.28 491.835 304.637 490.636 305.242C489.438 305.847 488.373 306.686 487.505 307.71C485.807 309.568 484.759 311.928 484.517 314.433" fill="#FFE496"/>
<path d="M467.28 305.144C461.988 300.622 453.962 301.067 447 301.218C458.187 306.551 468.738 313.128 478.453 320.822C478.707 315.895 473.939 310.857 467.28 305.144Z" fill="#FFE496"/>
<g opacity="0.3">
<path opacity="0.3" d="M467.28 305.144C461.987 300.622 453.961 301.067 447 301.218C458.187 306.551 468.737 313.128 478.453 320.822C478.707 315.895 473.939 310.857 467.28 305.144Z" fill="black"/>
</g>
<path d="M486.932 298.906C489.514 297.098 492.238 295.503 495.078 294.138C497.859 292.866 500.465 290.856 503.159 289.37C506.648 287.478 509.676 284.856 512.878 282.512C516.081 280.168 519.601 278.046 523.519 277.426C520.29 276.854 516.972 277.047 513.832 277.99C510.706 278.933 507.659 280.118 504.717 281.534C500.585 283.394 496.381 285.301 493.004 288.329C489.626 291.356 486.575 294.328 486.932 298.85" fill="#FFE496"/>
<path d="M509.548 334.618C509.456 334.589 509.368 334.549 509.286 334.499L508.547 334.117C507.919 333.783 507.005 333.322 505.861 332.711C505.297 332.409 504.669 332.099 503.986 331.773C503.302 331.447 502.579 331.113 501.8 330.772C500.127 330.027 498.394 329.424 496.619 328.968C494.859 328.48 493.006 328.434 491.224 328.833C490.444 329.001 489.679 329.23 488.935 329.516C487.356 330.157 485.936 331.133 484.771 332.377C484.286 332.901 484.048 333.219 484.024 333.171C484.067 333.085 484.118 333.003 484.175 332.925C484.331 332.698 484.501 332.481 484.683 332.274C485.348 331.497 486.119 330.818 486.972 330.255C487.562 329.864 488.187 329.529 488.84 329.254C489.593 328.953 490.369 328.711 491.16 328.531C492.994 328.103 494.907 328.141 496.723 328.642C498.515 329.101 500.262 329.721 501.943 330.493C502.738 330.835 503.453 331.177 504.129 331.519C504.804 331.86 505.432 332.178 505.996 332.488C507.125 333.092 508.023 333.616 508.642 333.99L509.35 334.419C509.477 334.546 509.556 334.61 509.548 334.618Z" fill="#263238"/>
<path d="M474.988 330.446C475.169 330.477 475.345 330.53 475.512 330.605C475.981 330.771 476.438 330.97 476.879 331.201C479.845 332.696 482.295 335.046 483.912 337.947C484.157 338.384 484.374 338.835 484.564 339.298C484.642 339.463 484.701 339.636 484.738 339.815C484.691 339.815 484.373 339.123 483.729 338.059C482.884 336.668 481.864 335.391 480.694 334.26C479.517 333.14 478.203 332.174 476.784 331.383C475.687 330.78 474.964 330.493 474.988 330.446Z" fill="#263238"/>
<path d="M456.369 304.699C456.492 304.719 456.612 304.754 456.727 304.802L457.736 305.16L459.325 305.748C459.945 305.978 460.621 306.32 461.375 306.654C465.332 308.486 469.023 310.844 472.35 313.662C474.163 315.224 475.87 316.904 477.459 318.693C478.747 320.159 479.957 321.692 481.083 323.286C482.045 324.645 482.768 325.773 483.268 326.56L483.848 327.466C483.921 327.567 483.982 327.677 484.031 327.792C483.945 327.699 483.865 327.601 483.793 327.498C483.65 327.299 483.435 327.013 483.173 326.623C482.641 325.829 481.886 324.748 480.908 323.445C479.931 322.142 478.699 320.56 477.253 318.915C475.659 317.146 473.955 315.479 472.151 313.925C468.846 311.139 465.201 308.784 461.304 306.916C460.549 306.566 459.889 306.217 459.27 305.97L457.68 305.334L456.695 304.921C456.579 304.858 456.47 304.783 456.369 304.699Z" fill="#263238"/>
<path d="M497.176 309.705C496.949 309.697 496.723 309.668 496.501 309.618L495.706 309.475C495.404 309.419 495.054 309.419 494.673 309.379C492.676 309.2 490.669 309.595 488.888 310.516C487.913 311.023 487.025 311.683 486.257 312.47C485.619 313.104 485.051 313.804 484.565 314.56C484.126 315.267 483.741 316.005 483.413 316.77C483.439 316.543 483.495 316.321 483.579 316.11C483.792 315.533 484.058 314.977 484.374 314.449C484.838 313.657 485.399 312.926 486.043 312.272C487.145 311.124 488.497 310.247 489.994 309.708C491.491 309.169 493.092 308.983 494.673 309.165C495.062 309.22 495.42 309.236 495.714 309.308L496.509 309.506C496.738 309.547 496.962 309.614 497.176 309.705Z" fill="#263238"/>
<path d="M505.631 283.473C505.529 283.543 505.423 283.607 505.313 283.664L504.375 284.181C503.581 284.618 502.381 285.269 500.95 286.104C499.52 286.938 497.859 288.003 496.079 289.282C494.137 290.641 492.316 292.164 490.636 293.836C489.769 294.694 489.021 295.664 488.411 296.72C487.862 297.777 487.338 298.802 486.821 299.78C485.947 301.512 485.164 303.289 484.477 305.104C484.027 306.331 483.647 307.584 483.341 308.855C483.126 309.753 483.047 310.261 483.023 310.253C483.005 310.13 483.005 310.004 483.023 309.88C483.023 309.642 483.102 309.284 483.198 308.823C483.458 307.536 483.808 306.27 484.247 305.033C484.907 303.2 485.671 301.406 486.535 299.661C487.02 298.675 487.537 297.642 488.085 296.585C488.706 295.502 489.47 294.508 490.358 293.629C492.049 291.94 493.889 290.408 495.857 289.052C497.653 287.788 499.345 286.755 500.784 285.921C502.222 285.087 503.422 284.483 504.256 284.077L505.218 283.616C505.349 283.551 505.488 283.503 505.631 283.473Z" fill="#263238"/>
<path d="M482.037 308.95C481.955 308.719 481.899 308.479 481.87 308.235C481.775 307.718 481.647 307.067 481.504 306.296C481.099 304.161 480.569 302.051 479.915 299.978C479.242 297.914 478.446 295.892 477.531 293.923L476.736 292.127C476.625 291.911 476.535 291.685 476.466 291.452C476.611 291.646 476.736 291.853 476.84 292.071C477.062 292.485 477.38 293.089 477.746 293.836C479.712 297.742 481.053 301.934 481.719 306.256C481.846 307.051 481.942 307.75 481.989 308.219C482.028 308.461 482.044 308.705 482.037 308.95Z" fill="#263238"/>
<path d="M481.426 289.806C481.166 286.622 480.24 283.527 478.708 280.724C476.633 276.866 473.737 273.51 470.225 270.891C466.713 268.273 462.67 266.457 458.38 265.569C464.658 274.915 470.931 284.262 477.198 293.613L479.63 298.611C481.275 295.894 481.64 292.985 481.426 289.806Z" fill="#FFE496"/>
<path d="M508.42 345.075H464.666V352.831H508.42V345.075Z" fill="#FF725E"/>
<path d="M467.933 351.29L471.66 375.352H500.704L505.147 351.29H467.933Z" fill="#FF725E"/>
<path d="M508.395 352.839C508.395 352.919 498.526 352.99 486.351 352.99C474.177 352.99 464.308 352.919 464.308 352.839C464.308 352.76 474.177 352.68 486.351 352.68C498.526 352.68 508.395 352.752 508.395 352.839Z" fill="#263238"/>
</svg>
